<?xml version="1.0" encoding="UTF-8"?>
<svg version="1.1" xmlns="http://www.w3.org/2000/svg" width="304" height="203">
<path d="M0 0 C7.99277371 0.41444012 15.30815659 2.62867353 22.9375 4.9375 C24.16791016 5.29779297 25.39832031 5.65808594 26.66601562 6.02929688 C35.74143323 8.74143323 35.74143323 8.74143323 38 11 C41.10645086 26.29850157 35.92023408 39.64419363 29 53 C33.24602272 48.08254296 37.40483313 43.1060725 41.5 38.0625 C42.31404297 37.06573242 42.31404297 37.06573242 43.14453125 36.04882812 C46.4597142 31.97012452 49.64436094 27.82652908 52.72070312 23.56420898 C54 22 54 22 56 21 C58.96626711 20.9007499 61.90856587 20.86019185 64.875 20.8671875 C66.19540283 20.86575241 66.19540283 20.86575241 67.54248047 20.86428833 C69.40527416 20.86360724 71.26807023 20.86545657 73.13085938 20.86962891 C75.98833528 20.87497816 78.845654 20.86968151 81.703125 20.86328125 C83.51041701 20.86394204 85.31770893 20.86522323 87.125 20.8671875 C87.98335449 20.86516327 88.84170898 20.86313904 89.72607422 20.86105347 C95.77008255 20.88504128 95.77008255 20.88504128 98 22 C97.66382931 28.0990968 94.75167802 31.63076659 91.1875 36.3125 C90.00035757 37.91205986 88.81418274 39.51233823 87.62890625 41.11328125 C87.02449707 41.92361816 86.42008789 42.73395508 85.79736328 43.56884766 C82.49489553 48.03583678 79.30966717 52.5854664 76.13110352 57.14111328 C74.0151373 60.16923879 71.88433332 63.14971986 69.625 66.07421875 C68.965 66.93660156 68.305 67.79898438 67.625 68.6875 C67.06039062 69.39261719 66.49578125 70.09773438 65.9140625 70.82421875 C64.73416898 73.06102339 64.73416898 73.06102339 65.578125 75.84765625 C67.15852541 79.35145605 69.03499866 82.53698763 71.125 85.75 C72.02331516 87.15940501 72.92035586 88.5696228 73.81640625 89.98046875 C74.56688232 91.15875244 74.56688232 91.15875244 75.33251953 92.36083984 C80.69948473 100.85526061 85.91505661 109.44589479 91.16455078 118.01318359 C92.77620304 120.63581643 94.39903182 123.25097748 96.02734375 125.86328125 C96.85189316 127.20031697 97.67614443 128.53753664 98.5 129.875 C99.1909375 130.98617187 99.881875 132.09734375 100.59375 133.2421875 C102 136 102 136 102 140 C95.15063046 140.25420341 88.30248124 140.4289275 81.44946289 140.54931641 C79.12022455 140.59951202 76.79129987 140.66768752 74.46313477 140.75439453 C71.10875148 140.87616373 67.75853864 140.93249799 64.40234375 140.9765625 C63.36665756 141.02817535 62.33097137 141.07978821 61.26390076 141.13296509 C56.77060472 141.13642646 54.09893087 141.09626337 50.82498169 137.83026123 C49.03567449 135.28850405 47.49885765 132.7206427 46 130 C45.33658852 129.08246445 45.33658852 129.08246445 44.65977478 128.14639282 C41.7143654 123.96514923 41.76372997 120.74723032 42.4453125 115.91796875 C43.26507511 111.60555561 44.12734451 107.30199253 45 103 C44.67837891 103.59312988 44.35675781 104.18625977 44.02539062 104.79736328 C26.01565806 137.98434194 26.01565806 137.98434194 24 140 C22.23140807 140.09946453 20.45888549 140.13080217 18.6875 140.1328125 C17.61242187 140.13410156 16.53734375 140.13539063 15.4296875 140.13671875 C14.29789063 140.13285156 13.16609375 140.12898437 12 140.125 C10.30230469 140.13080078 10.30230469 140.13080078 8.5703125 140.13671875 C7.49523437 140.13542969 6.42015625 140.13414062 5.3125 140.1328125 C4.31863281 140.13168457 3.32476562 140.13055664 2.30078125 140.12939453 C0 140 0 140 -1 139 C-1.0985491 137.21804128 -1.126321 135.43214252 -1.12698364 133.64746094 C-1.12980347 132.48637817 -1.13262329 131.32529541 -1.13552856 130.12902832 C-1.13350433 128.84379272 -1.1314801 127.55855713 -1.12939453 126.234375 C-1.13074856 124.87626091 -1.1325285 123.5181472 -1.13470459 122.16003418 C-1.13927877 118.46178799 -1.13748943 114.76356958 -1.1343255 111.06532288 C-1.13180182 107.20337853 -1.13413946 103.34143663 -1.13571167 99.47949219 C-1.13753334 92.99283418 -1.13512712 86.50618754 -1.13037109 80.01953125 C-1.12492848 72.50950077 -1.12669113 64.99949744 -1.1321975 57.48946762 C-1.1367287 51.0529647 -1.13737915 44.61646997 -1.13475883 38.17996597 C-1.13319609 34.33070684 -1.1330022 30.48146048 -1.13629532 26.63220215 C-1.13917413 23.01419294 -1.13719816 19.39621889 -1.13140106 15.7782135 C-1.12943791 13.80913339 -1.13242729 11.84005033 -1.13552856 9.87097168 C-1.13129883 8.12934753 -1.13129883 8.12934753 -1.12698364 6.35253906 C-1.12660662 5.33710022 -1.12622959 4.32166138 -1.12584114 3.27545166 C-1 1 -1 1 0 0 Z M46 99 C47 101 47 101 47 101 Z " fill="#E91E29" transform="translate(13,31)"/>
<path d="M0 0 C2.42582797 1.04619567 4.7246767 2.15546176 7.0625 3.375 C7.67416016 3.68566406 8.28582031 3.99632813 8.91601562 4.31640625 C9.57408203 4.65285156 10.23214844 4.98929687 10.91015625 5.3359375 C11.65818512 5.70170395 12.40621399 6.0674704 13.1769104 6.44432068 C16 8 16 8 18.88082886 10.19032288 C33.24382812 20.39581401 51.45693079 18.25286769 68.24392629 18.11447453 C72.85104269 18.08607898 77.4579173 18.10909128 82.06504822 18.12632751 C90.76291261 18.15122234 99.46003834 18.13081134 108.15783447 18.09355396 C118.07104909 18.05333872 127.98400611 18.06449562 137.89726651 18.07967007 C158.26506497 18.10971208 178.63233978 18.07620825 199 18 C205.48974766 32.80320483 205.1232196 47.56629729 201 63 C200.34 63.99 199.68 64.98 199 66 C196.38793564 66.4194231 196.38793564 66.4194231 193.00726318 66.48188782 C191.08981796 66.52709312 191.08981796 66.52709312 189.13363647 66.57321167 C187.70856243 66.59130355 186.28348278 66.60895842 184.85839844 66.6262207 C183.3635764 66.65483223 181.86877437 66.68450555 180.37399292 66.71516418 C175.45269448 66.8094498 170.53124262 66.87017202 165.609375 66.92578125 C164.35182388 66.9406192 164.35182388 66.9406192 163.06886768 66.9557569 C155.1539806 67.04817152 147.23905892 67.12826379 139.32378769 67.17901325 C129.21617986 67.24458377 119.11338529 67.37007535 109.00770164 67.57932597 C101.89415483 67.72157642 94.78189694 67.79388308 87.66697335 67.81560391 C83.4220785 67.83041193 79.18259938 67.87495882 74.93926239 67.99483681 C47.10901126 68.74500224 47.10901126 68.74500224 39.86264038 62.04826355 C36.6689214 58.3572473 34.23726137 54.43546514 32.06192875 50.07638645 C30.70390878 47.42105363 28.9911286 45.14922821 27.1328125 42.82421875 C26.12806218 41.44687553 25.12538924 40.06801401 24.125 38.6875 C17.08112415 29.04802795 9.84900061 19.5562041 2.5871582 10.08032227 C2.063396 9.39381592 1.53963379 8.70730957 1 8 C0.43692139 7.31284912 -0.12615723 6.62569824 -0.70629883 5.91772461 C-2 4 -2 4 -2 1 C-1.34 0.67 -0.68 0.34 0 0 Z M74 24 C74 36.21 74 48.42 74 61 C74.99 61 75.98 61 77 61 C77 48.79 77 36.58 77 24 C76.01 24 75.02 24 74 24 Z M111 24 C111 36.21 111 48.42 111 61 C111.99 61 112.98 61 114 61 C114 48.79 114 36.58 114 24 C113.01 24 112.02 24 111 24 Z M148 24 C148 36.21 148 48.42 148 61 C148.99 61 149.98 61 151 61 C151.33 54.73 151.66 48.46 152 42 C153.65 41.67 155.3 41.34 157 41 C157 40.01 157 39.02 157 38 C155.02 38 153.04 38 151 38 C151 33.38 151 28.76 151 24 C150.01 24 149.02 24 148 24 Z M89 29 C86.36266961 32.95599558 85.93154017 36.2838782 86 41 C86.97427265 45.44087067 88.09853744 48.39902496 92 51 C97.0599951 51.55406809 97.0599951 51.55406809 101.375 49.1875 C104.95143247 44.37307168 104.47121564 38.74714789 104 33 C102.69806857 29.810268 101.84288201 28.55314132 99 26.6875 C94.72790236 25.21896643 92.53094746 26.55549791 89 29 Z M66 25 C66 28.96 66 32.92 66 37 C63.525 36.505 63.525 36.505 61 36 C61.33 33.03 61.66 30.06 62 27 C57.71 27 53.42 27 49 27 C49 27.99 49 28.98 49 30 C51.97 30 54.94 30 58 30 C57.67 31.98 57.34 33.96 57 36 C55.72125 35.95875 54.4425 35.9175 53.125 35.875 C50.98128508 35.75787127 50.98128508 35.75787127 49 36 C48.34 36.66 47.68 37.32 47 38 C47.33 38.66 47.66 39.32 48 40 C51.465 39.505 51.465 39.505 55 39 C54.57847656 39.61488281 54.15695313 40.22976562 53.72265625 40.86328125 C53.17480469 41.67152344 52.62695312 42.47976562 52.0625 43.3125 C51.51722656 44.11300781 50.97195312 44.91351563 50.41015625 45.73828125 C48.86162674 48.0258143 48.86162674 48.0258143 48 51 C50.67456717 50.62207203 51.80611814 50.20233084 53.703125 48.22265625 C54.21359375 47.50980469 54.7240625 46.79695313 55.25 46.0625 C55.77078125 45.35222656 56.2915625 44.64195312 56.828125 43.91015625 C58.17430996 42.0893713 58.17430996 42.0893713 58 40 C60.64 40 63.28 40 66 40 C66 46.27 66 52.54 66 59 C67.32 59 68.64 59 70 59 C70 47.78 70 36.56 70 25 C68.68 25 67.36 25 66 25 Z M125 27 C125 34.59 125 42.18 125 50 C127.619375 50.020625 130.23875 50.04125 132.9375 50.0625 C134.17681274 50.07615601 134.17681274 50.07615601 135.44116211 50.09008789 C137.29433759 50.09723945 139.14749308 50.0502852 141 50 C142.62200515 48.37799485 142.1299075 46.57976969 142.1328125 44.34375 C142.13410156 43.40402344 142.13539063 42.46429688 142.13671875 41.49609375 C142.13091797 40.01302734 142.13091797 40.01302734 142.125 38.5 C142.12886719 37.51128906 142.13273437 36.52257812 142.13671875 35.50390625 C142.13478516 34.09431641 142.13478516 34.09431641 142.1328125 32.65625 C142.13168457 31.78806641 142.13055664 30.91988281 142.12939453 30.02539062 C142.2241537 28.00395846 142.2241537 28.00395846 141 27 C138.3013095 26.92674564 135.63497444 26.90777649 132.9375 26.9375 C129.0084375 26.9684375 129.0084375 26.9684375 125 27 Z M167 27 C167 32.94 167 38.88 167 45 C174.59 45 182.18 45 190 45 C190 44.01 190 43.02 190 42 C183.4 42 176.8 42 170 42 C170 40.68 170 39.36 170 38 C175.94 38 181.88 38 188 38 C188 37.01 188 36.02 188 35 C182.39 34.67 176.78 34.34 171 34 C170.67 32.68 170.34 31.36 170 30 C176.27 30 182.54 30 189 30 C189 29.01 189 28.02 189 27 C181.74 27 174.48 27 167 27 Z M162 52 C162 53.32 162 54.64 162 56 C172.56 56 183.12 56 194 56 C194 54.68 194 53.36 194 52 C183.44 52 172.88 52 162 52 Z " fill="#22468F" transform="translate(89,105)"/>
<path d="M0 0 C4.05513775 0.37236427 7.66822067 0.52527927 11.6875 -0.125 C16.11482991 -0.74238913 18.91355167 0.20650098 22.8125 2.5 C25.44947746 4.75777134 26.67833357 6.52921544 27.15759277 9.99697876 C27.27650558 13.19960168 27.26148718 16.37770567 27.203125 19.58203125 C27.19746521 20.75134689 27.19180542 21.92066254 27.18597412 23.12541199 C27.16360936 26.85486025 27.11341 30.5833428 27.0625 34.3125 C27.04243525 36.84308507 27.02418445 39.37368522 27.0078125 41.90429688 C26.96374378 48.10323586 26.89471302 54.30145428 26.8125 60.5 C23.5125 60.5 20.2125 60.5 16.8125 60.5 C16.4825 44.33 16.1525 28.16 15.8125 11.5 C14.8225 11.17 13.8325 10.84 12.8125 10.5 C11.8225 10.995 11.8225 10.995 10.8125 11.5 C10.4825 27.67 10.1525 43.84 9.8125 60.5 C6.5125 60.5 3.2125 60.5 -0.1875 60.5 C-1.1875 59.5 -1.1875 59.5 -1.30775452 57.51951599 C-1.30553391 56.65125687 -1.30331329 55.78299774 -1.30102539 54.88842773 C-1.30094986 53.90748642 -1.30087433 52.9265451 -1.30079651 51.9158783 C-1.29563522 50.8492244 -1.29047394 49.7825705 -1.28515625 48.68359375 C-1.2837413 47.5974025 -1.28232635 46.51121124 -1.28086853 45.3921051 C-1.27525048 41.90720925 -1.26269492 38.42237658 -1.25 34.9375 C-1.24498733 32.58138113 -1.24042402 30.22526126 -1.23632812 27.86914062 C-1.22527519 22.07940536 -1.20851951 16.28970719 -1.1875 10.5 C-2.8375 10.83 -4.4875 11.16 -6.1875 11.5 C-6.5175 27.67 -6.8475 43.84 -7.1875 60.5 C-10.4875 60.5 -13.7875 60.5 -17.1875 60.5 C-18.79146411 58.89603589 -18.32284537 57.1877429 -18.33276367 54.96777344 C-18.33914352 54.00297058 -18.34552338 53.03816772 -18.35209656 52.04412842 C-18.35320938 50.99315979 -18.3543222 49.94219116 -18.35546875 48.859375 C-18.35879715 47.78504211 -18.36212555 46.71070923 -18.36555481 45.6038208 C-18.37063008 43.32393829 -18.37296295 41.04404831 -18.37280273 38.76416016 C-18.37498196 35.27884587 -18.39311144 31.79385165 -18.41210938 28.30859375 C-18.41504463 26.09635525 -18.41702854 23.88411525 -18.41796875 21.671875 C-18.42515427 20.6290033 -18.43233978 19.58613159 -18.43974304 18.51165771 C-18.43666641 17.53424622 -18.43358978 16.55683472 -18.43041992 15.54980469 C-18.43184494 14.69344421 -18.43326996 13.83708374 -18.43473816 12.95477295 C-17.97027029 8.34317432 -16.66163739 5.95352272 -13.3125 2.75 C-8.5740595 -0.66167716 -5.73982134 -0.60346987 0 0 Z " fill="#E91E29" transform="translate(140.1875,52.5)"/>
<path d="M0 0 C11.72363833 0.15375263 11.72363833 0.15375263 15.58984375 3.80859375 C20.94752185 9.87222473 21.11067007 13.92054105 21.1875 21.875 C21.21650391 22.85662109 21.24550781 23.83824219 21.27539062 24.84960938 C21.34662841 33.0200348 21.34662841 33.0200348 18.74609375 36.8515625 C16.48482441 40.88313665 16.80287091 42.35861838 17.9453125 46.65039062 C18.16960937 47.38451172 18.39390625 48.11863281 18.625 48.875 C20.875 56.90972222 20.875 56.90972222 20.875 61.1875 C17.245 61.1875 13.615 61.1875 9.875 61.1875 C9.20344651 58.91800898 8.5376037 56.6471039 7.875 54.375 C7.50375 53.11042969 7.1325 51.84585938 6.75 50.54296875 C5.875 47.1875 5.875 47.1875 5.875 44.1875 C5.215 44.1875 4.555 44.1875 3.875 44.1875 C3.88660156 45.33089844 3.89820313 46.47429687 3.91015625 47.65234375 C3.91953288 49.14322754 3.92863321 50.63411309 3.9375 52.125 C3.94587891 52.87974609 3.95425781 53.63449219 3.96289062 54.41210938 C3.97152441 56.33744313 3.92724333 58.26285581 3.875 60.1875 C2.875 61.1875 2.875 61.1875 0.84375 61.3203125 C0.0290625 61.31773438 -0.785625 61.31515625 -1.625 61.3125 C-2.4396875 61.31507812 -3.254375 61.31765625 -4.09375 61.3203125 C-6.125 61.1875 -6.125 61.1875 -7.125 60.1875 C-7.22405152 58.35177369 -7.25299207 56.51222425 -7.25439453 54.67382812 C-7.25754669 53.49590698 -7.26069885 52.31798584 -7.26394653 51.10437012 C-7.2619223 49.82211548 -7.25989807 48.53986084 -7.2578125 47.21875 C-7.25876923 45.91296997 -7.25972595 44.60718994 -7.26071167 43.26184082 C-7.26218833 40.49437278 -7.26003511 37.72693696 -7.25537109 34.95947266 C-7.24967381 31.40487351 -7.25295298 27.85034986 -7.25894356 24.29575348 C-7.26341747 20.91591286 -7.26028886 17.53609277 -7.2578125 14.15625 C-7.25983673 12.87399536 -7.26186096 11.59174072 -7.26394653 10.27062988 C-7.26079437 9.09270874 -7.25764221 7.9147876 -7.25439453 6.70117188 C-7.25359894 5.65828003 -7.25280334 4.61538818 -7.25198364 3.54089355 C-7.00091287 -1.11221237 -4.01244316 0.0228499 0 0 Z M4.875 10.1875 C3.63578789 11.20386977 3.63578789 11.20386977 3.76147461 13.32055664 C3.76671143 14.23699951 3.77194824 15.15344238 3.77734375 16.09765625 C3.78056641 17.08701172 3.78378906 18.07636719 3.78710938 19.09570312 C3.79548828 20.13662109 3.80386719 21.17753906 3.8125 22.25 C3.81701172 23.29478516 3.82152344 24.33957031 3.82617188 25.41601562 C3.83800087 28.0065666 3.85448311 30.59700559 3.875 33.1875 C4.535 33.5175 5.195 33.8475 5.875 34.1875 C8.02084737 33.30031172 8.02084737 33.30031172 9.875 31.1875 C10.52793657 28.18756315 10.47839101 25.24710945 10.4375 22.1875 C10.46134766 21.36765625 10.48519531 20.5478125 10.50976562 19.703125 C10.50414686 17.41066685 10.43720582 15.41100389 9.875 13.1875 C7.50801666 11.04126558 7.50801666 11.04126558 4.875 10.1875 Z " fill="#E91E29" transform="translate(230.125,51.8125)"/>
<path d="M0 0 C3.45628064 3.66575219 4.31387046 6.40518571 4.28955078 11.41503906 C4.28939972 12.45581604 4.28924866 13.49659302 4.28909302 14.56890869 C4.27877045 15.68570007 4.26844788 16.80249146 4.2578125 17.953125 C4.2549826 19.10165955 4.25215271 20.25019409 4.24923706 21.43353271 C4.23804263 25.10162781 4.21293904 28.7694787 4.1875 32.4375 C4.17746926 34.92447564 4.16834358 37.41145511 4.16015625 39.8984375 C4.13810564 45.99488575 4.10358052 52.09115147 4.0625 58.1875 C0.7625 58.1875 -2.5375 58.1875 -5.9375 58.1875 C-6.2675 52.9075 -6.5975 47.6275 -6.9375 42.1875 C-8.9175 41.8575 -10.8975 41.5275 -12.9375 41.1875 C-12.92589844 42.33089844 -12.91429687 43.47429687 -12.90234375 44.65234375 C-12.89296712 46.14322754 -12.88386679 47.63411309 -12.875 49.125 C-12.86662109 49.87974609 -12.85824219 50.63449219 -12.84960938 51.41210938 C-12.84097559 53.33744313 -12.88525667 55.26285581 -12.9375 57.1875 C-13.9375 58.1875 -13.9375 58.1875 -15.96875 58.3203125 C-16.7834375 58.31773438 -17.598125 58.31515625 -18.4375 58.3125 C-19.2521875 58.31507812 -20.066875 58.31765625 -20.90625 58.3203125 C-22.9375 58.1875 -22.9375 58.1875 -23.9375 57.1875 C-24.04107009 55.67953455 -24.07601063 54.16677632 -24.08276367 52.65527344 C-24.08914352 51.69047058 -24.09552338 50.72566772 -24.10209656 49.73162842 C-24.10320938 48.68065979 -24.1043222 47.62969116 -24.10546875 46.546875 C-24.10879715 45.47254211 -24.11212555 44.39820923 -24.11555481 43.2913208 C-24.12063008 41.01143829 -24.12296295 38.73154831 -24.12280273 36.45166016 C-24.12498196 32.96634587 -24.14311144 29.48135165 -24.16210938 25.99609375 C-24.16504463 23.78385525 -24.16702854 21.57161525 -24.16796875 19.359375 C-24.17515427 18.3165033 -24.18233978 17.27363159 -24.18974304 16.19915771 C-24.18666641 15.22174622 -24.18358978 14.24433472 -24.18041992 13.23730469 C-24.18184494 12.38094421 -24.18326996 11.52458374 -24.18473816 10.64227295 C-23.72027029 6.03067432 -22.41163739 3.64102272 -19.0625 0.4375 C-13.13489624 -3.83037471 -6.24327088 -3.85223097 0 0 Z M-12.9375 9.1875 C-13.35320008 11.41248915 -13.35320008 11.41248915 -13.23046875 13.9765625 C-13.22080078 14.91757813 -13.21113281 15.85859375 -13.20117188 16.828125 C-13.17603516 17.81296875 -13.15089844 18.7978125 -13.125 19.8125 C-13.11146484 20.80507812 -13.09792969 21.79765625 -13.08398438 22.8203125 C-13.04855743 25.27658072 -12.99916196 27.73177285 -12.9375 30.1875 C-10.54030568 30.86708603 -10.54030568 30.86708603 -7.9375 31.1875 C-5.1175613 28.3675613 -5.64787162 26.25845841 -5.61523438 22.40429688 C-5.61845703 21.52837891 -5.62167969 20.65246094 -5.625 19.75 C-5.60888672 18.87794922 -5.59277344 18.00589844 -5.57617188 17.10742188 C-5.57552734 16.26888672 -5.57488281 15.43035156 -5.57421875 14.56640625 C-5.57123779 13.7988501 -5.56825684 13.03129395 -5.56518555 12.24047852 C-6.02905899 9.68263475 -6.93173225 8.78492689 -8.9375 7.1875 C-10.39975016 7.09504997 -10.39975016 7.09504997 -12.9375 9.1875 Z " fill="#E91E29" transform="translate(204.9375,54.8125)"/>
<path d="M0 0 C1.12019531 -0.00128906 2.24039062 -0.00257812 3.39453125 -0.00390625 C4.57402344 -0.00003906 5.75351562 0.00382812 6.96875 0.0078125 C8.73798828 0.00201172 8.73798828 0.00201172 10.54296875 -0.00390625 C12.22326172 -0.00197266 12.22326172 -0.00197266 13.9375 0 C14.97326172 0.00112793 16.00902344 0.00225586 17.07617188 0.00341797 C19.46875 0.1328125 19.46875 0.1328125 20.46875 1.1328125 C20.54054964 2.65209288 20.55267007 4.17448732 20.53125 5.6953125 C20.52222656 6.52160156 20.51320313 7.34789062 20.50390625 8.19921875 C20.49230469 8.83730469 20.48070312 9.47539063 20.46875 10.1328125 C17.82875 10.1328125 15.18875 10.1328125 12.46875 10.1328125 C12.47097061 10.7569957 12.47319122 11.38117889 12.47547913 12.02427673 C12.4975308 18.49624054 12.5126561 24.96819375 12.52368164 31.44018555 C12.52872349 33.85848422 12.53555678 36.27677983 12.54418945 38.69506836 C12.55626157 42.16260533 12.56197963 45.63010216 12.56640625 49.09765625 C12.57156754 50.18618393 12.57672882 51.27471161 12.58204651 52.39622498 C12.58215981 53.89766808 12.58215981 53.89766808 12.58227539 55.42944336 C12.584496 56.31546738 12.58671661 57.20149139 12.58900452 58.11436462 C12.46875 60.1328125 12.46875 60.1328125 11.46875 61.1328125 C9.97136876 61.2307182 8.46932108 61.26256114 6.96875 61.2578125 C6.1540625 61.26039062 5.339375 61.26296875 4.5 61.265625 C2.46875 61.1328125 2.46875 61.1328125 1.46875 60.1328125 C1.37548284 58.56734202 1.35129418 56.99768478 1.35522461 55.42944336 C1.35530014 54.42848129 1.35537567 53.42751923 1.35545349 52.39622498 C1.36061478 51.3076973 1.36577606 50.21916962 1.37109375 49.09765625 C1.3725087 47.98926895 1.37392365 46.88088165 1.37538147 45.73890686 C1.38099967 42.18268181 1.39355525 38.62651867 1.40625 35.0703125 C1.41126266 32.66601653 1.41582597 30.26171958 1.41992188 27.85742188 C1.43097501 21.94919746 1.44773083 16.0410094 1.46875 10.1328125 C-0.2328125 10.16375 -0.2328125 10.16375 -1.96875 10.1953125 C-5.53125 10.1328125 -5.53125 10.1328125 -6.53125 9.1328125 C-6.6640625 7.3203125 -6.6640625 7.3203125 -6.65625 5.1328125 C-6.65882813 4.4109375 -6.66140625 3.6890625 -6.6640625 2.9453125 C-6.37305018 -1.02614977 -3.30143111 0.00359521 0 0 Z " fill="#E91E29" transform="translate(267.53125,51.8671875)"/>
<path d="M0 0 C3.06334407 1.29960051 3.74926286 2.85455457 5.0625 5.875 C5.46946894 10.43305218 5.11308354 13.77383292 3.0625 17.875 C2.0625 18.875 2.0625 18.875 -0.3125 19.1875 C-2.9375 18.875 -2.9375 18.875 -4.58203125 17.16796875 C-6.16294457 14.49362835 -6.31108177 12.95727998 -6.25 9.875 C-6.24613281 9.029375 -6.24226562 8.18375 -6.23828125 7.3125 C-5.91867503 4.72244441 -5.32658923 3.07398224 -3.9375 0.875 C-1.9375 -0.125 -1.9375 -0.125 0 0 Z " fill="#22468F" transform="translate(184.9375,134.125)"/>
<path d="M0 0 C2.97 0 5.94 0 9 0 C9 5.61 9 11.22 9 17 C6.03 17 3.06 17 0 17 C0 11.39 0 5.78 0 0 Z " fill="#22468F" transform="translate(218,135)"/>
</svg>
