<?xml version="1.0" encoding="UTF-8" standalone="no"?>
<svg
   xmlns:dc="http://purl.org/dc/elements/1.1/"
   xmlns:cc="http://creativecommons.org/ns#"
   xmlns:rdf="http://www.w3.org/1999/02/22-rdf-syntax-ns#"
   xmlns:svg="http://www.w3.org/2000/svg"
   xmlns="http://www.w3.org/2000/svg"
   xmlns:sodipodi="http://sodipodi.sourceforge.net/DTD/sodipodi-0.dtd"
   xmlns:inkscape="http://www.inkscape.org/namespaces/inkscape"
   sodipodi:docname="Logo_of_Binggrae.svg"
   inkscape:version="1.0 (4035a4fb49, 2020-05-01)"
   id="svg8"
   version="1.1"
   viewBox="0 0 51.609494 13.759009"
   height="13.759009mm"
   width="51.609493mm">
  <defs
     id="defs2" />
  <sodipodi:namedview
     inkscape:window-maximized="1"
     inkscape:window-y="-8"
     inkscape:window-x="-8"
     inkscape:window-height="1017"
     inkscape:window-width="1920"
     showgrid="false"
     inkscape:document-rotation="0"
     inkscape:current-layer="layer1"
     inkscape:document-units="mm"
     inkscape:cy="34.675183"
     inkscape:cx="78.223237"
     inkscape:zoom="2.8284271"
     inkscape:pageshadow="2"
     inkscape:pageopacity="0.0"
     borderopacity="1.0"
     bordercolor="#666666"
     pagecolor="#ffffff"
     id="base" />
  <metadata
     id="metadata5">
    <rdf:RDF>
      <cc:Work
         rdf:about="">
        <dc:format>image/svg+xml</dc:format>
        <dc:type
           rdf:resource="http://purl.org/dc/dcmitype/StillImage" />
        <dc:title />
      </cc:Work>
    </rdf:RDF>
  </metadata>
  <g
     transform="translate(-8.9141789,-61.123398)"
     id="layer1"
     inkscape:groupmode="layer"
     inkscape:label="Layer 1">
    <path
       transform="scale(0.26458333)"
       d="m 72.816406,231.01758 c -10.036547,-0.0109 -25.171095,8.46794 -33.136718,18.85547 -8.496666,11.08003 -9.44648,24.32178 7.0625,25.95117 4.144546,0.43794 10.380859,-0.54274 16.679687,-3.82031 6.36833,-3.31375 14.107955,-9.91647 14.613281,-16.1836 0.302929,-2.04115 -0.257285,-3.34494 -1.621094,-4.8789 -2.154243,-2.71856 -6.101147,-1.15019 -5.773244,-2.44657 0.07449,-0.2945 2.368213,-0.52182 5.857224,-3.12765 7.46115,-6.18577 6.078409,-13.42889 -1.746094,-14.23242 -0.620169,-0.0781 -1.266444,-0.11646 -1.935547,-0.11719 z m -9.376953,4.61523 c 2.964122,-0.0802 5.011172,2.64017 3.236328,8.0293 -1.63926,4.13146 -4.49393,6.41118 -6.457666,7.46977 -1.963736,1.0586 -2.78057,0.64544 -1.671131,0.94561 4.367128,2.09131 5.621182,6.50148 3.773328,11.72524 -3.68293,10.14321 -15.928885,14.67327 -14.730468,1.45313 0.170381,-4.90608 1.623144,-11.79878 3.447265,-15.64063 3.187669,-8.07296 7.464471,-12.76773 11.083985,-13.77734 0.452438,-0.1262 0.894913,-0.19362 1.318359,-0.20508 z"
       style="opacity:1;fill:#e60012;fill-opacity:1;stroke-width:3.77953"
       id="path890"
       sodipodi:nodetypes="csccccscccccsscccscc" />
    <g
       style="font-style:normal;font-variant:normal;font-weight:normal;font-stretch:normal;font-size:10.8559px;line-height:0.45;font-family:Souvenir;-inkscape-font-specification:Souvenir;opacity:1;fill:#e60012;fill-opacity:1;stroke-width:0.271398"
       id="text897"
       transform="matrix(0.86798943,-0.01258992,-0.25091306,1.1557272,-0.00636284,0)"
       aria-label="i">
      <path
         sodipodi:nodetypes="ccccccccccccscscccccccccssc"
         id="path976"
         style="font-style:normal;font-variant:normal;font-weight:normal;font-stretch:normal;font-family:Souvenir;-inkscape-font-specification:Souvenir;opacity:1;fill:#e60012;fill-opacity:1;stroke-width:0.271398"
         d="m 45.159049,55.525264 c -0.02171,0.296728 -0.151984,0.542795 -0.390813,0.738201 -0.231592,0.195407 -0.546946,0.293449 -0.872623,0.31516 -1.630679,-0.140036 -1.093762,-1.300549 -0.538644,-1.5853 0.231593,-0.180931 0.488516,-0.282253 0.770769,-0.303965 0.275017,-0.02171 0.521084,0.05066 0.738202,0.217118 0.217118,0.15922 0.314821,0.365482 0.293109,0.618786 z m -0.390813,2.35573 -0.597074,3.235059 c -0.05066,0.282253 -0.07237,0.445092 -0.06514,0.488515 0.01447,0.08685 0.09046,0.148364 0.227973,0.18455 0.166457,0.04343 0.289491,0.126655 0.369101,0.249686 0.02171,0.03619 0.03257,0.07599 0.03257,0.119415 0,0.217118 -0.31844,0.434236 -0.955319,0.651354 -0.564507,0.195406 -0.998743,0.293109 -1.302708,0.293109 -0.03619,0 -0.06152,-0.0036 -0.07599,-0.01086 -0.231592,-0.115796 -0.332914,-0.296728 -0.303965,-0.542795 0,-0.02171 0.03981,-0.26778 0.119415,-0.738201 l 0.401668,-2.453433 c 0.0579,-0.347389 0.07599,-0.553651 0.05428,-0.618787 -0.02895,-0.07961 -0.12665,-0.148363 -0.29311,-0.206262 -0.159219,-0.0579 -0.337012,-0.159842 -0.365961,-0.253925 -0.07237,-0.231592 0.333394,-0.455327 1.049883,-0.723106 0.658591,-0.253304 1.121776,-0.361863 1.389555,-0.325677 0.101322,0.01447 0.184551,0.09408 0.249686,0.23883 0.06513,0.144745 0.08685,0.282253 0.06514,0.412524 z" />
    </g>
    <g
       style="font-style:normal;font-variant:normal;font-weight:normal;font-stretch:normal;font-size:11.1129px;line-height:1.25;font-family:Souvenir;-inkscape-font-specification:Souvenir;opacity:1;fill:#e60012;fill-opacity:1;stroke-width:0.277817"
       id="text901"
       transform="matrix(0.88412026,0,-0.22606104,1.1310679,-0.10558159,0)"
       aria-label="g">
      <path
         id="path958"
         style="font-style:normal;font-variant:normal;font-weight:normal;font-stretch:normal;font-family:Souvenir;-inkscape-font-specification:Souvenir;fill:#e60012;fill-opacity:1;stroke-width:0.277817"
         d="m 57.8526,58.470474 q 0.03334,0.222258 -0.166693,0.400064 -0.188919,0.177807 -0.433403,0.177807 h -0.566758 l 0.122242,0.166693 q 0.3445,0.477855 0.3445,1.11129 0,0.300048 -0.06668,0.655661 -0.255596,1.266871 -1.578031,1.978096 l -0.166694,0.0889 0.211145,0.03334 q 1.133516,0.177807 1.177968,1.177968 0.03334,0.92237 -1.155742,1.478015 -1.022387,0.466742 -2.378161,0.466742 -1.055725,0 -1.866967,-0.244484 -0.955709,-0.288935 -0.92237,-0.777903 0.03334,-0.511193 0.50008,-0.833467 0.400065,-0.277823 0.900145,-0.277823 0.166693,0 0.355613,0.05557 0.266709,0.07779 0.266709,0.211145 0,0.05556 -0.100016,0.211145 -0.0889,0.166693 -0.07779,0.255597 0.01111,0.211145 0.455629,0.3445 0.388951,0.122241 0.777903,0.111129 0.600096,-0.02223 1.044612,-0.288936 0.488968,-0.300048 0.455629,-0.755677 -0.05556,-0.689 -0.889032,-0.677887 l -0.900145,0.01111 q -0.889032,0.01111 -1.53358,-0.644548 -0.644548,-0.655661 -0.644548,-1.578032 0,-0.200032 0.03334,-0.400064 0.222258,-1.277984 1.233532,-2.100338 1.011274,-0.822355 2.311483,-0.822355 0.333387,0 0.900145,0.07779 0.577871,0.06668 0.76679,0.06668 l 1.177967,-0.02223 q 0.366726,-0.01111 0.411177,0.3445 z m -2.655983,2.30037 q 0.0889,-0.377839 0.0889,-0.744564 0,-1.177968 -0.789016,-1.289097 -0.511194,-0.06668 -0.966823,0.633436 -0.400064,0.622322 -0.555645,1.500241 -0.06668,0.388952 -0.06668,0.722339 0,1.133515 0.711226,1.200193 0.588983,0.05556 1.022386,-0.61121 0.355613,-0.533419 0.555645,-1.411338 z" />
    </g>
    <g
       style="font-style:normal;font-variant:normal;font-weight:normal;font-stretch:normal;font-size:11.0653px;line-height:1.25;font-family:Souvenir;-inkscape-font-specification:Souvenir;opacity:1;fill:#e60012;fill-opacity:1;stroke-width:0.276631"
       id="text905"
       transform="matrix(0.89096524,0,-0.2227942,1.1223782,-0.07250867,0)"
       aria-label="n">
      <path
         id="path961"
         style="font-style:normal;font-variant:normal;font-weight:normal;font-stretch:normal;font-family:Souvenir;-inkscape-font-specification:Souvenir;fill:#e60012;fill-opacity:1;stroke-width:0.276631"
         d="m 49.769984,63.351402 c 0.06639,0.236059 -0.280319,0.490561 -1.040138,0.763505 -0.715557,0.250814 -1.176611,0.350402 -1.383163,0.298763 -0.243437,-0.06639 -0.35409,-0.272945 -0.331959,-0.619656 0.02213,-0.331959 0.129098,-0.929486 0.320894,-1.792579 0.177045,-0.804079 0.265567,-1.368409 0.265567,-1.692991 0,-0.479496 -0.154914,-0.737686 -0.464743,-0.774571 -0.442612,-0.05164 -0.844651,0.232369 -1.206117,0.852028 -0.272944,0.472119 -0.483185,1.043827 -0.630722,1.715122 -0.08852,0.472119 -0.206553,1.043826 -0.35409,1.715121 -0.05164,0.199175 -0.08852,0.309828 -0.110653,0.331959 -0.04426,0.05901 -0.16229,0.08852 -0.35409,0.08852 h -1.195052 c -0.162291,0 -0.239748,-0.08115 -0.232371,-0.243437 0,-0.110653 0.04057,-0.365155 0.121718,-0.763506 l 0.486873,-2.478627 c 0.07377,-0.37622 0.05902,-0.649164 -0.04426,-0.818832 -0.04426,-0.07377 -0.143848,-0.14016 -0.298763,-0.199175 -0.147537,-0.05901 -0.228683,-0.136471 -0.243437,-0.232372 -0.02213,-0.169668 0.125404,-0.335647 0.442612,-0.497938 0.213929,-0.0959 0.431547,-0.191799 0.652853,-0.287698 0.37622,-0.184422 0.700802,-0.276633 0.973746,-0.276633 0.832255,-0.02493 0.455563,0.716058 0.420482,1.029077 l -0.110653,0.674984 0.354089,-0.531135 c 0.523758,-0.789325 1.22456,-1.183987 2.102407,-1.183987 0.442612,0 0.826209,0.140161 1.150792,0.420482 0.324582,0.280321 0.486873,0.61228 0.486873,0.995877 0,0.08114 -0.0074,0.158602 -0.02213,0.232371 L 49.095,62.388721 c -0.03689,0.206552 -0.0332,0.383597 0.01107,0.531134 0.03689,0.103276 0.151228,0.180733 0.343024,0.232371 0.191799,0.04426 0.298763,0.110652 0.320894,0.199176 z"
         sodipodi:nodetypes="sccccscccccssccccccccccccsssccccss" />
    </g>
    <g
       style="font-style:normal;font-variant:normal;font-weight:normal;font-stretch:normal;font-size:10.8772px;line-height:1.25;font-family:Souvenir;-inkscape-font-specification:Souvenir;opacity:1;fill:#e60012;fill-opacity:1;stroke-width:0.271931"
       id="text909"
       transform="matrix(0.88315732,0,-0.27067624,1.1323011,-0.16936507,0)"
       aria-label="r">
      <path
         id="path964"
         style="font-style:normal;font-variant:normal;font-weight:normal;font-stretch:normal;font-family:Souvenir;-inkscape-font-specification:Souvenir;fill:#e60012;fill-opacity:1;stroke-width:0.271931"
         d="m 72.850896,59.848483 q -0.05439,0 -0.119649,-0.01088 -0.304562,-0.06526 -0.456842,-0.293685 -0.152281,-0.239298 -0.163158,-0.250175 -0.06526,-0.02175 -0.11965,-0.02175 -0.630877,0 -1.142106,2.229827 -0.141403,0.728772 -0.369824,1.762106 -0.07614,0.293684 -0.108772,0.326316 -0.06526,0.08702 -0.337194,0.08702 h -1.185614 q -0.250176,0 -0.250176,-0.174036 0,-0.05439 0.130526,-0.826667 l 0.424211,-2.512633 q 0.09789,-0.576492 -0.01088,-0.750527 -0.06526,-0.108772 -0.326316,-0.217544 -0.250176,-0.108772 -0.261053,-0.250176 -0.04351,-0.402456 1.098597,-0.761404 0.228422,-0.08702 0.46772,-0.174035 0.34807,-0.119649 0.532983,-0.119649 0.130526,0 0.195789,0.05439 0.206667,0.174035 0.206667,0.707018 0,0.152281 -0.02175,0.293684 l -0.119649,0.761404 0.261052,-0.500351 q 0.717896,-1.381404 1.838247,-1.327018 0.587369,0.03263 0.587369,0.772281 0,0.424211 -0.163158,0.772281 -0.217544,0.424211 -0.587369,0.424211 z" />
    </g>
    <g
       style="font-size:10.8676px;line-height:1.25;font-family:Souvenir;-inkscape-font-specification:Souvenir;opacity:1;fill:#e60012;fill-opacity:1;stroke-width:0.271691"
       id="text913"
       transform="matrix(0.88217113,0,-0.2315046,1.1335669,-0.15519097,0)"
       aria-label="e">
      <path
         id="path967"
         style="opacity:1;fill:#e60012;fill-opacity:1;stroke-width:0.274711"
         d="m 84.305199,59.258797 c 0.03359,0.58685 -0.365552,1.075892 -1.197437,1.467126 -0.512487,0.239087 -1.10607,0.412969 -1.780749,0.521645 l -1.413922,0.12253 c -0.0913,0.64874 0.526097,1.488153 1.471236,1.475007 0.133326,0 0.270441,-0.01449 0.411344,-0.04347 0.444975,-0.09418 0.860789,-0.268067 1.247442,-0.521644 0.342041,-0.224597 0.561208,-0.336896 0.657501,-0.336896 0.08888,0 0.170212,0.02536 0.243985,0.07607 0.08118,0.05071 0.121536,0.115919 0.121068,0.195617 -0.0017,0.289803 -0.329534,0.612208 -0.983403,0.967216 -0.713327,0.383989 -1.451496,0.583228 -2.214507,0.597718 -0.785229,0.01449 -1.450757,-0.173878 -1.996582,-0.565115 -0.612191,-0.441949 -0.916012,-1.050534 -0.911465,-1.825757 8e-4,-0.130411 0.0127,-0.264444 0.03569,-0.402101 0.123613,-0.869408 0.616856,-1.61565 1.479727,-2.238726 0.758791,-0.55787 1.523436,-0.851295 2.293937,-0.880275 0.659354,-0.02173 1.214371,0.06521 1.665052,0.260822 0.554125,0.239087 0.844493,0.615831 0.871104,1.130231 z m -4.421176,1.365817 c 0.44404,0.08 0.825444,-0.03406 1.114016,-0.116043 0.400619,-0.108676 0.701263,-0.220975 0.901932,-0.336896 0.475665,-0.275313 0.731212,-0.533678 0.733083,-0.852461 0.0011,-0.181127 -0.03843,-0.412097 -0.193364,-0.528018 -1.168969,-0.931349 -2.454818,1.096473 -2.555667,1.833418 z"
         sodipodi:nodetypes="cccccccscccccccccccccccccc" />
    </g>
    <g
       style="font-size:11.0576px;line-height:1.25;font-family:Souvenir;-inkscape-font-specification:Souvenir;opacity:1;fill:#e60012;fill-opacity:1;stroke-width:0.27644"
       id="text917"
       transform="matrix(0.89000804,-0.01791981,-0.22087229,1.1178103,0.14309268,0.26192009)"
       aria-label="a">
      <path
         id="path970"
         style="fill:#e60012;fill-opacity:1;stroke-width:0.27644"
         d="m 76.132453,64.591615 q 0.03317,0.18798 -0.165864,0.331728 -0.08846,0.06635 -0.409131,0.199037 l -0.973069,0.420189 q -0.23221,0.09952 -0.442304,0.09952 -0.221152,0 -0.364901,-0.165864 Q 73.644493,65.310359 73.65555,65.07815 L 73.71084,64.116139 73.4344,64.5695 q -0.27644,0.453362 -0.774032,0.740859 -0.519707,0.320671 -1.138932,0.331728 -0.840378,0.02212 -1.415373,-0.630283 -0.563938,-0.663456 -0.563938,-1.603352 0,-1.470661 1.028357,-2.609593 1.06153,-1.183164 2.510075,-1.161048 0.818263,0.01106 1.194221,0.475476 l 0.199037,0.243268 0.27644,-0.23221 q 0.641341,-0.541822 1.017299,-0.464419 0.243267,0.04423 0.243267,0.375958 0,0.221152 -0.143749,0.818263 -0.176921,0.718744 -0.232209,1.083644 l -0.221152,1.537007 q -0.02211,0.187979 0,0.574995 0.01106,0.210094 0.353843,0.298555 0.342786,0.08846 0.364901,0.243267 z M 73.65555,62.744996 q 0.23221,-0.87355 0.23221,-1.337969 0,-0.818263 -0.608168,-0.928839 -0.475477,-0.08846 -0.973069,0.519707 -0.453361,0.563938 -0.707686,1.3822 -0.154807,0.497592 -0.154807,1.0173 0,1.14999 0.641341,1.238451 0.519707,0.0774 0.973069,-0.55288 0.375958,-0.530765 0.59711,-1.33797 z" />
    </g>
    <g
       style="font-style:normal;font-variant:normal;font-weight:normal;font-stretch:normal;font-size:11.1129px;line-height:1.25;font-family:Souvenir;-inkscape-font-specification:Souvenir;opacity:1;fill:#e60012;fill-opacity:1;stroke-width:0.277818"
       id="text901-3"
       transform="matrix(0.88412022,0,-0.22606103,1.1310679,-0.10558159,0.05846521)"
       aria-label="g">
      <path
         id="path973"
         style="font-style:normal;font-variant:normal;font-weight:normal;font-stretch:normal;font-family:Souvenir;-inkscape-font-specification:Souvenir;fill:#e60012;fill-opacity:1;stroke-width:0.277818"
         d="m 64.826351,58.415294 q 0.03334,0.222258 -0.166694,0.400065 -0.188919,0.177806 -0.433403,0.177806 h -0.566758 l 0.122242,0.166693 q 0.3445,0.477855 0.3445,1.11129 0,0.300049 -0.06668,0.655662 -0.255597,1.26687 -1.578032,1.978096 l -0.166694,0.0889 0.211146,0.03334 q 1.133515,0.177806 1.177967,1.177967 0.03334,0.922371 -1.155742,1.478016 -1.022386,0.466741 -2.37816,0.466741 -1.055726,0 -1.866967,-0.244483 -0.95571,-0.288936 -0.922371,-0.777903 0.03334,-0.511194 0.50008,-0.833468 0.400065,-0.277822 0.900145,-0.277822 0.166694,0 0.355613,0.05556 0.26671,0.07779 0.26671,0.211145 0,0.05557 -0.100016,0.211145 -0.0889,0.166694 -0.07779,0.255597 0.01111,0.211145 0.455629,0.3445 0.388952,0.122242 0.777903,0.111129 0.600097,-0.02223 1.044613,-0.288935 0.488967,-0.300049 0.455629,-0.755678 -0.05557,-0.688999 -0.889032,-0.677887 l -0.900145,0.01111 q -0.889032,0.01111 -1.53358,-0.644548 -0.644549,-0.655661 -0.644549,-1.578032 0,-0.200032 0.03334,-0.400064 0.222258,-1.277983 1.233532,-2.100338 1.011274,-0.822355 2.311483,-0.822355 0.333387,0 0.900145,0.07779 0.577871,0.06668 0.76679,0.06668 l 1.177967,-0.02223 q 0.366726,-0.01111 0.411178,0.3445 z m -2.655983,2.30037 q 0.0889,-0.377838 0.0889,-0.744564 0,-1.177967 -0.789016,-1.289096 -0.511193,-0.06668 -0.966822,0.633435 -0.400065,0.622322 -0.555645,1.500242 -0.06668,0.388951 -0.06668,0.722338 0,1.133516 0.711226,1.200193 0.588984,0.05557 1.022387,-0.611209 0.355613,-0.533419 0.555645,-1.411339 z" />
    </g>
  </g>
</svg>
