<?xml version="1.0" encoding="UTF-8"?>
<svg xmlns="http://www.w3.org/2000/svg" width="259" height="109" viewBox="0 0 259 109" fill="none">
  <path d="M257.45 49.2833L253.44 42.8533C252.38 41.1433 250.2 40.5033 248.38 41.3433L239.87 45.2833L245.21 25.3233C245.74 23.3333 244.67 21.2733 242.74 20.5533C239.62 19.4033 229.33 15.6033 227.7 15.1633C225.9 14.6833 224.03 15.3533 222.94 16.8833C221.86 18.3933 221.84 20.4433 222.88 21.9833C223.17 22.4033 223.85 24.4433 223.27 28.1133L222.51 32.8133L212.02 31.0533C210.79 30.8433 209.53 31.1733 208.55 31.9533C207.8 31.7133 206.97 31.5133 206.03 31.3633C201.59 30.6433 196.72 31.8833 193.01 34.6833C192.81 34.8333 192.61 34.9933 192.41 35.1533L194.37 10.4733C194.57 7.96326 192.78 5.72326 190.29 5.36326C172.88 2.83326 171.92 2.82326 171.55 2.82326C169.35 2.80326 167.41 4.08326 166.56 6.09326C165.71 8.09326 166.15 10.3833 167.67 11.9233C168.42 12.6833 169.81 14.0933 169.82 18.2833L169.9 22.5233C165.5 22.3533 160.58 23.4533 156.36 26.5433C154.16 28.1533 152.42 29.9833 151.04 31.8933L149.84 4.95326C149.71 2.11326 147.32 -0.096736 144.48 0.00326399C135.08 0.343264 123.67 0.773264 122.62 0.903264C120.26 1.18326 118.33 2.85326 117.71 5.15326C117.09 7.45326 117.91 9.86326 119.8 11.3033C120.58 11.8933 122.63 14.9433 123.72 20.1733L124.41 24.7433C124.03 24.7533 123.66 24.8033 123.28 24.8933L107.97 28.5133C106.48 28.8633 105.21 29.8133 104.43 31.1333C103.96 31.9333 103.71 32.8233 103.67 33.7333C103.27 32.9933 102.7 32.3433 101.99 31.8433C100.7 30.9233 99.07 30.6033 97.53 30.9533C97.53 30.9533 89.25 32.8333 84.3 33.9533C83.96 30.7233 82.96 27.2933 81.02 23.7233C71.17 5.58326 50.14 10.0033 30.86 16.7133C21.97 19.8133 9.18003 24.2733 7.93003 24.7133L7.22003 24.9333C6.20003 25.2533 5.37336 25.5233 4.74003 25.7433L4.47003 25.8433C1.90003 26.7433 0.13003 29.1333 2.97008e-05 31.9033C-0.11997 34.6733 1.43003 37.2033 3.96003 38.3533C4.86003 38.7633 7.75003 41.1533 10.27 47.2533C16.14 61.4433 33.43 104.063 33.6 104.493C34.57 106.873 36.9 108.313 39.35 108.223C39.92 108.203 40.5 108.103 41.07 107.903C41.25 107.843 59.25 101.683 66.08 99.4333C79.61 94.9733 88.32 87.5433 91.21 78.4833C92.95 80.2133 94.91 81.5633 97.09 82.5233C100 83.8033 103.19 84.3833 106.69 84.2533C110.81 84.1033 115.36 82.9833 120.4 80.8833C121.07 80.9833 121.76 80.9633 122.45 80.8133L133.44 78.3733C134.34 78.1733 135.13 77.7433 135.79 77.1933C136.17 77.2633 136.56 77.3133 136.96 77.3033C137.09 77.3033 137.22 77.2933 137.35 77.2733L148.19 76.0633C150.9 75.7633 152.91 73.4033 152.79 70.6833L152.62 66.8133C156.34 70.7033 161.14 73.0933 165.97 73.5433C168.71 73.8033 171.11 73.4533 173.04 72.9233C173.68 73.2733 174.41 73.4733 175.19 73.4933L184.83 73.7233C184.93 73.7233 185.02 73.7233 185.12 73.7233C187.53 73.6333 189.52 71.7533 189.71 69.3233L189.84 67.7433C192.67 71.0233 196.51 73.0633 200.74 73.4833C202.76 73.6833 204.68 73.5533 206.48 73.0933C207.12 73.6433 207.93 74.0133 208.83 74.1133L216.63 75.0133C216.85 75.0433 217.08 75.0433 217.29 75.0433C217.8 75.0233 218.3 74.9133 218.76 74.7333C219.05 74.8633 219.35 74.9733 219.68 75.0333L227.72 76.4833C229.76 76.8533 231.74 75.5933 232.28 73.5933L232.76 71.8133L238.02 78.2833C238.83 79.2833 240.04 79.7933 241.26 79.7533C241.91 79.7333 242.56 79.5433 243.16 79.1933L250.3 74.9333C251.23 74.3733 251.9 73.4633 252.14 72.4033C252.39 71.3433 252.19 70.2333 251.59 69.3233L246.15 61.0233L256.16 54.7933C257.06 54.2333 257.7 53.3433 257.94 52.3133C258.18 51.2833 258 50.2033 257.44 49.3033L257.45 49.2833Z" fill="white"></path>
  <path d="M71.08 51.9834C71.08 51.9834 83.99 41.5934 75.82 26.5534C69.15 14.2734 55.09 14.6034 32.88 22.3334C23.53 25.5934 9.86002 30.3634 9.86002 30.3634C7.45002 31.1134 7.84002 30.9834 6.51002 31.4534C5.84002 31.6934 5.80002 32.6134 6.45002 32.9034C9.51002 34.2934 13.15 38.5334 15.81 44.9634C21.75 59.3334 39.15 102.233 39.15 102.233C39.15 102.233 57.28 96.0334 64.23 93.7434C76.88 89.5734 89.42 80.9834 85.66 66.5434C82.52 54.4634 71.09 51.9734 71.09 51.9734L71.08 51.9834ZM34.44 35.4634C34.44 35.4634 46.33 31.2034 51.4 31.0534C56 30.9134 59.7 32.9834 61.12 38.4834C62.49 43.8034 60.66 48.2734 55.29 51.4134C51.74 53.4934 44.29 56.5034 41.18 57.5634L34.44 35.4634ZM62.66 83.3634C59.67 84.8734 54.9 86.8434 50.44 88.3634L44.22 67.8634C50.58 65.7034 55.06 64.2234 59.19 63.9934C64.37 63.7034 67.76 66.2734 69.04 70.0834C70.38 74.0734 69.67 79.8334 62.65 83.3634H62.66Z" fill="#D20910"></path>
  <path d="M123.29 6.05336C122.73 6.12336 122.54 6.84336 122.99 7.18336C125.13 8.81336 127.66 13.3034 128.87 19.2734L136.81 72.1334L147.65 70.9234L144.72 5.19336C144.72 5.19336 124.34 5.93336 123.3 6.06336L123.29 6.05336Z" fill="#D20910"></path>
  <path d="M109.29 33.9432L118.72 66.5632C105.99 71.3332 103.25 65.4532 102.06 59.3032C100.48 51.1132 98.8 36.3832 98.8 36.3832C98.8 36.3832 83.03 39.9632 81.99 40.1932C81.48 40.3132 81.38 40.9932 81.83 41.2632C83.05 41.9832 84.42 43.3732 85.19 45.5332C86.69 49.7332 87.74 58.6132 89.54 64.4132C92.83 75.0532 100.32 84.3432 121.01 74.5132L121.26 75.3732L132.25 72.9332L124.6 30.3232L109.28 33.9432H109.29Z" fill="#D20910"></path>
  <path d="M171.54 7.59325C171.04 7.59325 170.77 8.19325 171.12 8.55325C172.71 10.1633 174.63 12.7633 174.65 18.1833L174.84 28.3233C171.15 26.8233 164.61 26.4633 159.23 30.3933C153.06 34.9033 150.85 42.2232 150.59 47.8232C150.14 57.4932 156.22 67.8232 166.44 68.7832C171.73 69.2832 175.3 66.8033 175.3 66.8033L175.32 68.7132L184.96 68.9433L189.63 10.0733C189.63 10.0733 172.53 7.59325 171.53 7.58325L171.54 7.59325ZM175.19 59.1133C173.9 61.4033 168.86 62.3533 165.34 59.0233C160.97 54.8833 160.53 46.2933 163.21 41.4033C166.31 35.7633 173.58 36.2433 174.98 39.3133L175.18 59.1133H175.19Z" fill="#D20910"></path>
  <path d="M211.32 35.3733L211.15 38.7733C210.66 38.2433 209.47 36.3533 205.36 35.6833C199.93 34.8033 191.07 37.7433 189.61 50.2033C188.2 62.2133 194.61 68.4633 201.2 69.1233C206.07 69.6033 208.75 67.3933 209.54 66.7633L209.36 69.7633L217.16 70.6633L222.13 37.1833L211.33 35.3733H211.32ZM211.1 53.4533C210.19 61.4533 207.45 63.7333 203.7 63.3033C199.71 62.8433 197.63 58.0533 198.53 51.5833C199.28 46.1933 201.84 42.6233 205.69 42.9333C209.38 43.2333 211.87 46.7133 211.11 53.4533H211.1Z" fill="#D20910"></path>
  <path d="M254.07 51.3933L250.06 44.9633L233.82 52.4833L241.37 24.2933C241.37 24.2933 228.26 19.4333 226.69 19.0133C226.28 18.9033 225.97 19.3833 226.21 19.7333C227.34 21.3933 227.88 24.6933 227.23 28.8033C227.23 28.8533 227.21 28.9033 227.21 28.9633L220.42 71.0933L228.46 72.5333L230.96 63.2133L241.15 75.7333L248.29 71.4733L240.62 59.7633L254.09 51.3733L254.07 51.3933Z" fill="#D20910"></path>
</svg>
