<?xml version="1.0" encoding="UTF-8" standalone="no"?>
<svg
   xmlns:dc="http://purl.org/dc/elements/1.1/"
   xmlns:cc="http://creativecommons.org/ns#"
   xmlns:rdf="http://www.w3.org/1999/02/22-rdf-syntax-ns#"
   xmlns:svg="http://www.w3.org/2000/svg"
   xmlns="http://www.w3.org/2000/svg"
   xmlns:sodipodi="http://sodipodi.sourceforge.net/DTD/sodipodi-0.dtd"
   xmlns:inkscape="http://www.inkscape.org/namespaces/inkscape"
   width="1000"
   height="483.006"
   viewBox="0 0 1000 483.006"
   version="1.1"
   id="svg768">
  <defs
     id="defs762" />
  <sodipodi:namedview
     id="base"
     pagecolor="#ffffff"
     bordercolor="#666666"
     borderopacity="1.0"
     inkscape:pageopacity="0.0"
     inkscape:pageshadow="2"
     inkscape:zoom="0.97300469"
     inkscape:cx="519.76295"
     inkscape:cy="242.06308"
     inkscape:document-units="mm"
     inkscape:current-layer="layer1"
     inkscape:document-rotation="0"
     showgrid="false"
     units="px"
     inkscape:window-width="1920"
     inkscape:window-height="1009"
     inkscape:window-x="-8"
     inkscape:window-y="-8"
     inkscape:window-maximized="1" />
  <metadata
     id="metadata765">
    <rdf:RDF>
      <cc:Work
         rdf:about="">
        <dc:format>image/svg+xml</dc:format>
        <dc:type
           rdf:resource="http://purl.org/dc/dcmitype/StillImage" />
        <dc:title />
      </cc:Work>
    </rdf:RDF>
  </metadata>
  <g
     id="layer1">
    <path
       style="fill:#eb2885;fill-opacity:1;fill-rule:nonzero;stroke:none;stroke-width:2.71733"
       d="m 255.28077,315.29559 c 0,51.22599 -37.15106,92.73963 -85.36251,92.73963 -48.22204,0 -85.373107,-41.51364 -85.373107,-92.73963 0,-51.22597 37.151067,-92.73961 85.373107,-92.73961 48.21145,0 85.36251,41.52426 85.36251,92.73961 z m -251.4170451,0 c 0,92.6335 76.1065531,167.7104 166.0545351,167.7104 89.948,0 166.03334,-75.0769 166.03334,-167.7104 0,-92.63346 -76.08534,-167.72102 -166.03334,-167.72102 -89.947982,0 -166.0545351,75.08756 -166.0545351,167.72102"
       id="path2" />
    <path
       style="fill:#eb2885;fill-opacity:1;fill-rule:nonzero;stroke:none;stroke-width:2.71733"
       d="m 418.71351,72.784206 c 0,-9.192218 4.65982,-13.841417 13.85205,-13.841417 h 230.86717 c 9.19219,0 13.84139,4.649199 13.84139,13.841417 v 31.960514 c 0,9.19222 -4.6492,13.86264 -13.84139,13.86264 H 432.39567 c -5.31787,0 -12.48273,-1.23127 -13.68216,-11.47437 0,-1.23128 0,-34.348784 0,-34.348784 z m 13.85205,-30.686762 c -22.65155,0 -30.68679,16.537533 -30.68679,30.686762 v 35.442104 l 0.0427,0.4352 c 1.35866,12.93918 10.08382,26.77 30.47445,26.77 h 231.03706 c 22.6409,0 30.68672,-16.5269 30.68672,-30.68676 V 72.784229 c 0,-14.14923 -8.04582,-30.686763 -30.68672,-30.686763 H 432.56582"
       id="path4" />
    <path
       style="fill:#eb2885;fill-opacity:1;fill-rule:nonzero;stroke:none;stroke-width:2.71733"
       d="M 339.8153,106.91008 V 78.102117 c 0,-8.258139 -3.63019,-22.2694 -22.25879,-22.2694 h -98.35473 c -3.15251,0 -5.71064,-2.207835 -5.71064,-4.914559 V 22.25879 C 213.49114,14.01125 209.86094,0 191.22175,0 h -42.2142 c -18.62862,0 -22.25881,14.01125 -22.25881,22.25879 v 28.659368 c 0,2.706724 -2.57931,4.914559 -5.71063,4.914559 H 22.26942 C 3.640817,55.832717 0,69.843978 0,78.102117 v 28.807963 c 0,8.25817 3.640817,22.26942 22.26942,22.26942 h 295.28709 c 18.6286,0 22.25879,-14.01125 22.25879,-22.26942"
       id="path6" />
    <path
       style="fill:#eb2885;fill-opacity:1;fill-rule:nonzero;stroke:none;stroke-width:2.71733"
       d="M 418.71351,375.76688 V 232.21524 c 0,-31.41918 22.63031,-36.11081 36.11083,-36.11081 h 208.60839 c 9.19219,0 13.84139,4.65981 13.84139,13.85205 v 31.96051 c 0,9.1816 -4.6492,13.84141 -13.84139,13.84141 H 500.39272 c -3.86369,0 -7.61064,1.51788 -10.27491,4.18214 -2.48379,2.48381 -3.85308,5.74248 -3.85308,9.16038 v 79.30157 c 0,43.24382 10.49783,52.57401 59.11263,52.57401 h 118.05537 c 9.19219,0 13.84139,4.65982 13.84139,13.85201 v 31.96056 c 0,9.19223 -4.6492,13.85202 -13.84139,13.85202 H 528.56386 c -67.7529,0 -109.85035,-32.52308 -109.85035,-84.87421 z m 36.11083,-196.49717 c -25.59183,0 -52.94557,13.91571 -52.94557,52.94553 v 143.55164 c 0,61.78748 49.73992,101.70898 126.70626,101.70898 h 134.8477 c 22.64093,0 30.68675,-16.52697 30.68675,-30.68679 v -31.96056 c 0,-14.15982 -8.04582,-30.68672 -30.68675,-30.68672 H 545.36674 c -21.33529,0 -31.92871,-1.70895 -36.55663,-5.88053 -4.16092,-3.75751 -5.70002,-11.84585 -5.70002,-29.85877 0,0 0,-69.38754 0,-75.79874 5.25419,0 160.32264,0 160.32264,0 22.64093,0 30.68675,-16.52693 30.68675,-30.68676 v -31.96051 c 0,-14.15986 -8.04582,-30.68677 -30.68675,-30.68677 H 454.82434"
       id="path8" />
    <path
       style="fill:#eb2885;fill-opacity:1;fill-rule:nonzero;stroke:none;stroke-width:2.71733"
       d="M 999.99999,451.60805 V 69.907667 c 0,-8.268766 -3.63016,-22.269415 -22.25882,-22.269415 H 935.527 c -18.63924,0 -22.2694,14.000649 -22.2694,22.269415 V 181.46691 c 0,2.70674 -2.56879,4.91458 -5.71068,4.91458 h -52.87119 c -3.14192,0 -5.71068,-2.20784 -5.71068,-4.91458 V 69.907667 c 0,-8.268766 -3.6302,-22.269415 -22.25874,-22.269415 h -42.21428 c -18.63913,0 -22.26936,14.000649 -22.26936,22.269415 V 451.60805 c 0,8.24757 3.63023,22.25878 22.26936,22.25878 h 42.21428 c 18.62854,0 22.25874,-14.01121 22.25874,-22.25878 V 264.6428 c 0,-2.6961 2.56876,-4.91456 5.71068,-4.91456 h 52.87119 c 3.14189,0 5.71068,2.21846 5.71068,4.91456 v 186.96525 c 0,8.24757 3.63016,22.25878 22.2694,22.25878 h 42.21417 c 18.62866,0 22.25882,-14.01121 22.25882,-22.25878"
       id="path10" />
  </g>
</svg>
