<svg xmlns="http://www.w3.org/2000/svg" width="1594" height="497"><clipPath id="a"><path d="M-268.64-248.57h2177.16V786.99H-268.64z"/></clipPath><g clip-path="url(#a)"><g fill="#e60013"><path fill-rule="evenodd" d="M999.3 250.8c0 52.1-41 94.2-109.3 94.2s-109.2-42.1-109.2-94.2 40.9-94.2 109.2-94.2 109.3 42.1 109.3 94.2m-51.7 0c0-40.9-25.7-73.9-57.6-73.9s-57.6 33-57.6 73.9 25.7 74 57.6 74 57.6-33.1 57.6-74"/><path d="M1008.6 163.5h186.8v20.9h-60.7v152.8h-54.2V184.4h-71.9zM1215.2 163.5h186.7v20.9h-72v152.8h-54.1V184.4h-60.6zM683.4 316.4h91.2v20.8H641.7c-11.5 0-20.7-9.2-20.7-20.7v-153h52v142.6c0 5.7 4.6 10.3 10.4 10.3M1483.5 194.4v40.4h108.7v20.4h-108.7v51.2c0 5.6 4.5 10.3 10.3 10.3h100v20.5h-141.7c-11.5 0-20.8-9.2-20.8-20.7V184.2c0-11.5 9.3-20.7 20.8-20.7h141.7v20.6h-100c-5.8 0-10.3 4.6-10.3 10.3M351 454.7c-56.3 56.2-148.5 56.2-204.8 0l-104-104c-56.3-56.2-56.3-148.3 0-204.6l104-103.9c56.3-56.3 148.5-56.3 204.8 0l104 103.9c56.3 56.3 56.3 148.4 0 204.6z"/></g><g fill="#fff"><path d="M186.9 401.1c-8.3 0-15-6.5-15.3-14.7-.2-4.1 1.2-8 4-11.1 2.8-3 6.6-4.7 10.7-4.9 8.5-.4 15.6 6.2 16 14.7s-6.3 15.6-14.7 16zM242.9 117.4c-8.5 0-15.2 2.6-20.7 8.1-11.8 11.7-18 35.9-17.4 68 .6 39.7 10.1 117.6 41.3 157.7 5.1 6.4 10.5 11.6 16.2 15.4 5.5 3.6 11.7 7.2 21.3 7.2 2.6 0 5.4-.3 8.4-.8 17.9-4.3 40.3-24.2 57-50.8 2.5-4 6.9-6.4 11.7-6.4 2.6 0 5.1.7 7.3 2.1 3.1 2 5.3 5 6.1 8.6s.2 7.3-1.8 10.4c-21.1 33.5-48.9 57.1-74.5 63-.1 0-.3.1-.6.1-4.7.9-9.3 1.3-13.7 1.3-16.5 0-28.1-6.2-36.4-11.7-8.2-5.4-15.8-12.7-22.7-21.5-44-56.4-47-162.2-47.2-174.1-.5-28.1 3.6-66.3 25.6-88.1 10.7-10.7 24.2-16.1 40-16.1h2.5c15.9 0 29.3 5.4 40.1 16.1 22 21.8 26 60 25.6 88.1-.5 29.3-5.9 86.2-36.4 137.1-2.4 4.1-7 6.7-11.8 6.7-2.5 0-4.9-.7-7.1-1.9-6.5-3.9-8.6-12.4-4.7-18.9 21.3-35.7 31.6-74.9 32.4-123.5.5-32.2-5.7-56.3-17.5-68-5.4-5.5-12.2-8.1-20.6-8.1z"/></g></g></svg>