<svg
   xmlns="http://www.w3.org/2000/svg"
   fill-rule="evenodd"
   viewBox="0 0 503.067 228.467">
  <path
     fill="#231916"
     d="m 441.76962,58.066751 c -24.66135,0 -41.99202,6.853344 -51.89336,20.44003 -0.36,-8.386679 -1.12667,-16.773358 -1.93067,-25.120036 -0.44,-4.53334 -3.128,-17.520026 -7.95067,-25.653371 -4.57334,-7.720011 -10.02,-14.920022 -16.99201,-20.7066971 -3.05733,-2.5200037 -6.73334,-4.9066738 -10.59734,-6.0133421 A 25.129347,25.12937 0 0 0 345.37357,0 c -7.25067,0 -13.66801,3.3066715 -17.58935,9.0800132 -4.78133,7.0533438 -4.63333,17.1466918 0.35734,24.0267018 1.016,1.426669 2.21333,2.58667 3.416,3.546672 v 6.080009 c 0,0.01333 -0.0107,0.01333 -0.0107,0.04 v 16.986691 c -3.56533,-0.746668 -7.09067,-1.053335 -10.93467,-1.053335 -18.63601,0 -32.81068,7.093344 -41.25602,19.920029 -0.0107,-8.346678 -0.0107,-17.653359 -0.02,-28.080041 0,-0.333333 -0.0107,-0.666667 -0.0307,-0.986668 -0.228,-2.760004 -0.948,-5.320007 -2.14133,-7.600011 -5.75734,-11.000016 -18.30801,-14.906688 -27.31069,-14.906688 -9.04,0 -21.62934,3.933339 -27.30668,14.880022 -1.75333,3.293338 -1.992,6.520009 -2.14667,8.440012 l -0.036,0.373334 a 4.5333359,4.5333399 0 0 0 -0.028,0.373334 c -0.016,0.32 -0.0267,0.493334 -0.016,29.506709 -9.37333,-15.200022 -27.02801,-22.666699 -53.28003,-22.666699 -0.34666,0 -0.684,0 -1.02,0.04 h -0.32666 c -25.60802,0 -36.64535,7.960011 -40.28002,10.573348 l -0.264,0.200001 c -0.0893,0.05333 -0.17867,0.12 -0.27467,0.2 -3.60133,2.680004 -10.712,8.86668 -12.55067,16.920025 C 103.3641,70.160102 86.328094,58.586752 60.106746,58.586752 H 59.764079 C 19.558723,58.733419 0.00137813,75.946777 0.00137813,111.18683 v 21.21336 c -0.02000001,2.01334 0.1800001,8.25335 0.44933359,13.20002 0.22666679,9.84002 1.15466728,19.69336 2.10933448,29.49338 0.4453336,4.53334 3.1240018,17.52002 7.9400048,25.6267 4.581336,7.73335 10.040006,14.93336 17.00001,20.7067 3.050668,2.53334 6.736004,4.93334 10.590672,6.04001 2.340002,0.66667 4.705336,1 7.030671,1 7.257337,0 13.670674,-3.30667 17.60001,-9.08001 4.786669,-7.04001 4.637336,-17.14669 -0.353334,-24.05337 -1.013333,-1.4 -2.216001,-2.54667 -3.429335,-3.50667 v -6.08001 c 0,-0.0267 0.01333,-0.0267 0.01333,-0.04 v -17.00003 c 3.570668,0.72 7.101337,1.05334 10.932006,1.05334 20.173344,0 35.100019,-8.32001 43.218699,-23.20004 6.11467,11.52002 20.42667,22.89337 53.18269,22.89337 1.23466,0 9.58667,-0.22667 13.25334,-0.6 19.52001,-1.94667 33.03202,-9.09335 40.81602,-21.56003 v 2.56 c 0,0.44 0.0293,0.90667 0.076,1.37334 0.35333,3.09334 1.49867,5.86667 3.41067,8.22668 7.46534,9.37334 21.78668,10.09334 26.01201,10.09334 4.22401,0 18.62401,-0.74666 26.05335,-10.17334 2.73067,-3.45334 3.15067,-7.08001 3.34667,-8.81335 h -0.0173 c 0.04,-0.66667 0.08,-2.09334 0.1,-6.05334 9.24267,14.74669 25.93601,25.37337 51.05603,25.37337 h 0.35066 c 28.79469,-0.12 46.98136,-8.97335 55.00937,-26.93337 8.60667,17.73335 27.05201,26.4267 55.76003,26.4267 41.99202,0 61.5547,-17.53336 61.5547,-55.18675 0,-37.773385 -20.05068,-56.120079 -61.29737,-56.120079" />
  <path
     fill="#82B92B"
     d="m 267.00419,50.54674 c -0.08,-0.986668 -0.29867,-1.973336 -0.76533,-2.853337 -2.98934,-5.733342 -10.30934,-8.320012 -16.38668,-8.320012 -6.10667,0 -13.42934,2.58667 -16.40001,8.320012 -0.63067,1.200002 -0.68133,2.800004 -0.8,4.106673 -0.0133,0.253333 0.0387,98.040144 0.0387,98.040144 0.08,0.64 0.26933,1.29333 0.76266,1.86667 2.97867,3.8 10.31468,5.50667 16.40001,5.50667 6.07601,0 13.40668,-1.70667 16.38535,-5.50667 0.62533,-0.76 0.66666,-1.82667 0.78533,-2.69334 0.02,-0.18667 -0.02,-98.46681 -0.02,-98.46681 m 125.3814,63.64009 c 0,-29.226706 13.47735,-43.800061 49.38403,-43.800061 35.90669,0 48.95736,14.573355 48.95736,43.800061 0,29.52005 -13.04934,42.8534 -49.21469,42.8534 -35.94002,0 -49.1267,-13.48002 -49.1267,-42.8534 m 62.98004,-6.37334 c 0,-2.46667 -0.12,-5.05334 -0.80533,-7.34668 -1.236,-4.893337 -4.49334,-9.666678 -12.79068,-9.666678 -8.42667,0 -11.82267,4.773341 -13.05867,9.666678 -0.67734,2.29334 -0.82667,4.88001 -0.82667,7.34668 -0.12,2.29334 0,4.49334 0,6.37334 0,1.90667 -0.12,4.08001 0,6.38668 0,2.45334 0.14933,5.04001 0.82667,7.36001 1.236,4.90667 4.63333,9.65335 13.05867,9.65335 8.29867,0 11.55468,-4.74668 12.79068,-9.65335 0.68533,-2.32 0.80533,-4.90667 0.80533,-7.36001 0.14,-2.30667 0,-4.60001 0,-6.38668 0,-1.74667 0.14,-4.08 0,-6.37334 M 167.04147,70.293436 v 0.02667 c -23.80402,-0.266667 -32.42002,6.88001 -34.80668,8.546679 0,0 -9.06934,6.733343 -7.93334,11.800017 1.2,5.266674 7.70934,3.093338 12.276,2.18667 8.42267,-1.693336 17.69068,-2.800004 26.03201,-2.800004 6.12668,0 19.94135,1.960003 19.94135,11.053342 v 4.09334 c -29.36402,-4.36 -61.46136,1.02667 -61.46136,23.3067 0,19.7067 17.18267,28.62671 45.19735,28.62671 1.14933,0 8.95334,-0.24 12.03067,-0.56 27.42669,-2.73334 37.68402,-16.18669 37.68402,-42.30673 0,-29.226703 -13.06134,-43.973391 -48.96002,-43.973391 m 9.37867,67.133431 c -1.66267,0.49333 -3.536,0.6 -5.368,0.73333 h -4.16401 c -1.69333,-0.13333 -3.54666,-0.24 -5.20533,-0.73333 -3.52534,-0.88 -6.96134,-3.21334 -6.96134,-9.18668 0,-6.06668 3.436,-8.52002 6.96,-9.41335 1.66134,-0.46667 3.51334,-0.58667 5.20667,-0.70667 h 4.16401 c 1.832,0.12 3.70533,0.24 5.368,0.70667 3.50933,0.89333 6.952,3.34667 6.952,9.41335 0,5.97334 -3.44267,8.30668 -6.952,9.18668" />
  <path
     fill="white"
     d="m 267.00419,50.54674 c -0.08,-0.986668 -0.29867,-1.973336 -0.76533,-2.853337 -2.98934,-5.733342 -10.30934,-8.320012 -16.38668,-8.320012 -6.10667,0 -13.42934,2.58667 -16.40001,8.320012 -0.63067,1.200002 -0.68133,2.800004 -0.8,4.106673 -0.0133,0.253333 0.0387,98.040144 0.0387,98.040144 0.08,0.64 0.26933,1.29333 0.76266,1.86667 2.97867,3.8 10.31468,5.50667 16.40001,5.50667 6.07601,0 13.40668,-1.70667 16.38535,-5.50667 0.62533,-0.76 0.66666,-1.82667 0.78533,-2.69334 0.02,-0.18667 -0.02,-98.46681 -0.02,-98.46681 m 125.3814,63.64009 c 0,-29.226706 13.47735,-43.800061 49.38403,-43.800061 35.90669,0 48.95736,14.573355 48.95736,43.800061 0,29.52005 -13.04934,42.8534 -49.21469,42.8534 -35.94002,0 -49.1267,-13.48002 -49.1267,-42.8534 m 62.98004,-6.37334 c 0,-2.46667 -0.12,-5.05334 -0.80533,-7.34668 -1.236,-4.893337 -4.49334,-9.666678 -12.79068,-9.666678 -8.42667,0 -11.82267,4.773341 -13.05867,9.666678 -0.67734,2.29334 -0.82667,4.88001 -0.82667,7.34668 -0.12,2.29334 0,4.49334 0,6.37334 0,1.90667 -0.12,4.08001 0,6.38668 0,2.45334 0.14933,5.04001 0.82667,7.36001 1.236,4.90667 4.63333,9.65335 13.05867,9.65335 8.29867,0 11.55468,-4.74668 12.79068,-9.65335 0.68533,-2.32 0.80533,-4.90667 0.80533,-7.36001 0.14,-2.30667 0,-4.60001 0,-6.38668 0,-1.74667 0.14,-4.08 0,-6.37334 M 167.04147,70.293436 v 0.02667 c -23.80402,-0.266667 -32.42002,6.88001 -34.80668,8.546679 0,0 -9.06934,6.733343 -7.93334,11.800017 1.2,5.266674 7.70934,3.093338 12.276,2.18667 8.42267,-1.693336 17.69068,-2.800004 26.03201,-2.800004 6.12668,0 19.94135,1.960003 19.94135,11.053342 v 4.09334 c -29.36402,-4.36 -61.46136,1.02667 -61.46136,23.3067 0,19.7067 17.18267,28.62671 45.19735,28.62671 1.14933,0 8.95334,-0.24 12.03067,-0.56 27.42669,-2.73334 37.68402,-16.18669 37.68402,-42.30673 0,-29.226703 -13.06134,-43.973391 -48.96002,-43.973391 m 9.37867,67.133431 c -1.66267,0.49333 -3.536,0.6 -5.368,0.73333 h -4.16401 c -1.69333,-0.13333 -3.54666,-0.24 -5.20533,-0.73333 -3.52534,-0.88 -6.96134,-3.21334 -6.96134,-9.18668 0,-6.06668 3.436,-8.52002 6.96,-9.41335 1.66134,-0.46667 3.51334,-0.58667 5.20667,-0.70667 h 4.16401 c 1.832,0.12 3.70533,0.24 5.368,0.70667 3.50933,0.89333 6.952,3.34667 6.952,9.41335 0,5.97334 -3.44267,8.30668 -6.952,9.18668" />
  <path
     fill="#D81521"
     d="m 41.472069,215.60031 c 4.053335,1.14667 8.518671,0.57334 11.056006,-3.14667 1.813334,-2.66667 1.848001,-7.10667 -0.154667,-9.88001 -0.726667,-1.01334 -2.296001,-1.94667 -3.413335,-2.42667 -1.672001,-0.72 -1.748001,-0.70667 -3.026668,-1.10667 -2.593335,-0.8 -5.084003,-1.69334 -7.560005,-2.81334 -6.22667,-2.86667 -12.186673,-6.40001 -17.300009,-10.98668 -1.564001,-1.41334 -3.048002,-2.88 -4.553336,-4.36001 -0.333334,-0.32 -1.808001,-1.94667 -1.846668,-2.4 1.256001,11.88002 16.968009,34.30672 26.798682,37.12005" />
  <path
     fill="white"
     d="M 59.813412,70.933437 C 20.08539,71.06677 12.342718,88.186795 12.342718,111.18683 v 21.3067 c -0.06,2.85333 0.492001,15.52002 0.752001,17.18669 1.365334,8.45334 5.737337,16.72002 11.772007,23.01337 7.082671,7.33334 13.960008,10.80001 21.744012,13.01335 v -34.48005 c 10.453339,5 16.330676,6.20001 23.273347,6.20001 28.685349,0 37.789355,-19.5867 37.789355,-41.48006 0,-24.333373 -14.956009,-45.146737 -47.860028,-45.013403 m 14.238675,50.026743 c 0,2.48 -0.14,5.05334 -0.826667,7.34667 -1.209334,4.89334 -4.477336,9.65335 -12.773341,9.65335 -8.441338,0 -11.840006,-4.76001 -13.064007,-9.65335 -0.673334,-2.29333 -0.816,-4.86667 -0.816,-7.34667 -0.124001,-2.30667 0,-4.46668 0,-6.37335 0,-1.90667 -0.124001,-4.08 0,-6.38667 0,-2.45334 0.142666,-5.05334 0.816,-7.36001 1.225334,-4.88001 4.622669,-9.65335 13.064007,-9.65335 8.296005,0 11.564007,4.77334 12.773341,9.65335 0.686667,2.30667 0.826667,4.90667 0.826667,7.36001 0.124,2.30667 0,4.62667 0,6.38667 0,1.76001 0.124,4.06668 0,6.37335" />
  <path
     fill="#74B92A"
     d="m 349.02824,12.866685 c -4.04534,-1.146668 -8.52534,-0.573334 -11.05601,3.160005 -1.80133,2.653337 -1.84267,7.106677 0.15067,9.880014 0.736,1.000002 2.29867,1.933337 3.42533,2.426671 1.65334,0.706667 1.744,0.693334 3.01867,1.080001 2.6,0.813335 5.08934,1.706669 7.56,2.826671 6.23334,2.866671 12.19068,6.400009 17.30001,10.986683 1.56534,1.400002 3.04934,2.880004 4.55201,4.346673 0.34,0.32 1.81333,1.973336 1.85333,2.413337 -1.25467,-11.866684 -16.97334,-34.293384 -26.80401,-37.120055" />
  <path
     fill="white"
     d="m 330.68956,157.5469 c 39.72269,-0.14667 47.47469,-17.2667 47.47469,-40.26673 V 95.986807 c 0.0587,-2.880004 -0.48,-15.520023 -0.73866,-17.200025 -1.37334,-8.466679 -5.73734,-16.720025 -11.79334,-23.000034 -7.07201,-7.333344 -13.94401,-10.800016 -21.74135,-13.013352 v 34.466717 c -10.45067,-5.026674 -16.32668,-6.213343 -23.28001,-6.213343 -28.67469,0 -37.78669,19.600029 -37.78669,41.50673 0,24.3467 14.96801,45.14673 47.86669,45.0134 m -14.24267,-50.04008 c 0,-2.46667 0.14933,-5.05334 0.83733,-7.34667 1.21334,-4.880011 4.47067,-9.666685 12.76934,-9.666685 8.44534,0 11.83201,4.786674 13.05734,9.666685 0.68667,2.29333 0.82667,4.88 0.82667,7.34667 0.11867,2.30667 0,4.46668 0,6.37335 0,1.92 0.11867,4.08 0,6.40001 0,2.44 -0.14,5.04 -0.82667,7.34667 -1.22666,4.89334 -4.61333,9.65335 -13.05734,9.65335 -8.29867,0 -11.55467,-4.76001 -12.76934,-9.65335 -0.688,-2.30667 -0.83733,-4.90667 -0.83733,-7.34667 -0.12,-2.32001 0,-4.62668 0,-6.40001 0,-1.74667 -0.12,-4.06668 0,-6.37335" />
</svg>
