<svg xmlns="http://www.w3.org/2000/svg" width="1545" height="381"><clipPath id="a"><path d="M-5334-3509H6878v7397H-5334z"/></clipPath><g clip-path="url(#a)"><g fill="#2a302b" fill-rule="evenodd"><path d="M777.1 227.7h-52.6v37.5h44.2v23h-44.2v58.5h-24.4v-142h77zm20.3 105.7c-10.7-10.5-16.1-23.6-16.1-39.3q0-23.3 16.1-39.2 16-15.6 40.1-15.6 24 0 40.1 15.6c10.7 10.6 16.1 23.7 16.1 39.2 0 15.7-5.4 28.8-16.1 39.3-10.8 10.6-24.1 15.8-40.1 15.8-16.1 0-29.4-5.2-40.1-15.8m40.1-6.5c9.1 0 16.9-3.1 23-9.3 6.1-6.3 9.3-14.1 9.3-23.5 0-9.3-3.2-17-9.3-23.3-6.1-6.2-13.9-9.3-23-9.3q-13.8 0-23.1 9.3c-6.3 6.3-9.5 14-9.5 23.3 0 9.4 3.2 17.2 9.5 23.5q9.3 9.3 23.1 9.3m80.5 6.5c-10.7-10.5-16.1-23.6-16.1-39.3q0-23.3 16.1-39.2 16-15.6 40.1-15.6 24 0 40.1 15.6c10.8 10.6 16.1 23.7 16.1 39.2 0 15.7-5.3 28.8-16.1 39.3-10.7 10.6-24.1 15.8-40.1 15.8-16.1 0-29.4-5.2-40.1-15.8m40.1-6.5c9.2 0 16.9-3.1 23-9.3 6.2-6.3 9.3-14.1 9.3-23.5 0-9.3-3.1-17-9.3-23.3-6.1-6.2-13.8-9.3-23-9.3-9.1 0-16.9 3.1-23.1 9.3-6.3 6.3-9.4 14-9.4 23.3 0 9.4 3.1 17.2 9.4 23.5 6.2 6.2 14 9.3 23.1 9.3m153.2-128.4h23.1v148.2h-23.1v-16.3c-9.2 12.5-21.4 18.7-36.8 18.8-14.8 0-27.1-5.2-36.9-15.8q-14.7-15.8-14.7-39.3 0-23.3 14.7-39.2 14.7-15.6 36.9-15.6 23.1 0 36.8 18.7zm-9.3 119.1c6.2-6.3 9.3-14.1 9.3-23.5 0-9.3-3.1-17-9.3-23.3-6.1-6.2-13.8-9.3-23-9.3q-14 0-23.2 9.3c-6.2 6.3-9.3 14-9.3 23.3 0 9.4 3.1 17.2 9.3 23.5q9.2 9.3 23.2 9.3c9.2 0 16.9-3.1 23-9.3m58.1 21.9c-7-6.5-10.5-14.3-10.5-23.7h23.4c0 3.8 1.4 6.9 4.1 9.5s6.2 3.9 10.1 3.9c3.7 0 6.8-1.1 9.5-3.2 2.6-2.1 3.9-4.8 3.9-7.9 0-6.6-6.2-11.5-18.6-14.8-20.7-5.2-31-16-31-32.4 0-9.7 3.4-17.4 10.3-23.1s15.3-8.5 25.3-8.5c10.3 0 18.9 3.1 25.8 9.2q10.2 9.2 10.2 22.6h-23.5c0-6.5-5.2-11.8-12.7-11.8-6.6 0-12 4.5-12 10.2 0 6.6 6.3 11.5 19 14.6 20.4 5.2 30.6 15.9 30.6 31.9q0 15.3-10.5 24.3c-7.2 5.9-16 8.9-26.5 8.9-10.9 0-19.8-3.2-26.9-9.7M741.5 143.2c-14.6 0-26.7-4.1-36.5-12.3q-14.8-12.4-14.8-30.7h36.5c0 3.7 1.5 6.9 4.4 9.5 3 2.5 6.7 3.9 11 3.9 3.9 0 7.4-1.1 10.2-3.1 2.7-1.9 4.1-4.4 4.1-7.3 0-6.4-7.8-11.4-23.5-15.1-27.1-6.6-40.6-20.8-40.6-42.7 0-11.4 4.6-21 14-28.8q14-11.6 35-11.6c14.2 0 26 4 35.4 11.8s14.1 17.7 14.1 29.5h-36.3c0-6.7-5.7-11.6-13.4-11.6-7.1 0-12.6 4-12.6 9.4 0 7.2 7.7 10.9 21.9 14.8 11.7 2.9 20.1 6.3 28.9 12.6s13.5 16.7 13.5 29.5q0 18-14.7 30c-9.8 8.2-22 12.2-36.6 12.2M895.3 140.7h-29.5v-9.1c-7 7.8-16.6 11.7-28.7 11.7-10.5 0-19.3-3.3-26.3-9.9-7-6.5-10.4-14.6-10.4-24.4 0-9.7 3.5-17.8 10.5-24.4q10.5-9.7 26.2-9.7h24.5v-9.6h-53.3V34.8h87zm-33.7-33.1v-9.7h-14.5c-6.9 0-12 4.4-12 10.2 0 5.7 5.1 10.4 12 10.4 8.3 0 14.5-4.8 14.5-10.9m218.1-53.3v86.4h-33.6V67.4h-33.3v73.3h-33.6V67.4h-33.5v73.3h-33.6V34.8h148.1c10.7 0 19.5 8.8 19.5 19.5m87.3-19.5h37.5l-57.9 145.4h-43.8v-30.8h20.2l4.3-10.3-41.5-104.3h38.2l21.6 62.1zM1298.6 140.7h-29.5v-9.1c-7 7.8-16.6 11.7-28.7 11.7-10.6 0-19.3-3.3-26.3-9.9-7-6.5-10.4-14.6-10.4-24.4 0-9.7 3.5-17.8 10.5-24.4q10.5-9.7 26.2-9.7h24.5v-9.6h-53.3V34.8h87zm-33.7-33.1v-9.7h-14.5c-6.9 0-12 4.4-12 10.2 0 5.7 5.1 10.4 12 10.4 8.2 0 14.5-4.8 14.5-10.9m154.6-53.3v86.4h-33.7V67.4H1349v73.3h-33.6V34.8h84.6c10.7 0 19.5 8.8 19.5 19.5m91.8-19.5h33.7v145.4h-103.3v-30.8h69.6v-22.2q-11.9 11.9-29.5 11.9-21.6 0-36-15.3c-9.7-10.2-14.5-22.8-14.5-38.2 0-15.2 4.8-27.9 14.5-38.1 9.6-10.1 21.6-15.2 36-15.2q17.6 0 29.5 11.8zm-6.5 67.3c4.3-4.4 6.5-9.8 6.5-16.4 0-6.5-2.2-12-6.4-16.4-4.4-4.3-9.7-6.5-16.2-6.5-6.6 0-12 2.2-16.4 6.5-4.3 4.4-6.5 9.9-6.5 16.4 0 6.6 2.2 12 6.5 16.4 4.4 4.5 9.9 6.7 16.4 6.7q9.5 0 16.1-6.7"/></g><path fill="#ff6400" d="M230.8 190.8c0-64.6 32.2-121.6 81.4-156H.4v312h311.8c-49.2-34.4-81.4-91.4-81.4-156M420.8.7C380.4.7 343 13.3 312.2 34.8v312c30.8 21.5 68.2 34.1 108.6 34.1 105 0 190.1-85.1 190.1-190.1S525.8.7 420.8.7"/><path fill="#fff" d="M312.2 34.8c-49.2 34.4-81.4 91.4-81.4 156s32.2 121.6 81.4 156z"/></g></svg>