<?xml version="1.0" encoding="utf-8"?>
<!-- Generator: Adobe Illustrator 19.0.0, SVG Export Plug-In . SVG Version: 6.00 Build 0)  -->
<svg version="1.1" id="Layer_1" xmlns="http://www.w3.org/2000/svg" xmlns:xlink="http://www.w3.org/1999/xlink" x="0px" y="0px"
	 viewBox="0 0 147 39" style="enable-background:new 0 0 147 39;" xml:space="preserve">
<style type="text/css">
	.st0{fill:#ED1C24;}
	.st1{fill:#1D1D1B;}
</style>
<g id="XMLID_5_">
	<g id="XMLID_26_">
		<g id="XMLID_3_">
			<path id="XMLID_4_" class="st0" d="M29.6,14.2c0.9,0,1.7-0.6,2.1-1.4l2-4.6c-3.4,0.2-13.1-4.3-18-8.1C10.8,3.9,3.5,6.8,1.7,7.8
				C0.4,8.5-0.1,9.8,0,11l0.5,5.7c0.3-0.8,0.9-1.4,1.7-1.7c6.1-2.7,8.6-3.5,13.4-6.4C20.4,11.4,27.1,14.2,29.6,14.2z"/>
		</g>
		<g id="XMLID_1_">
			<path id="XMLID_2_" class="st0" d="M30.9,16l-0.7,6.8c-0.2,2-1.3,3.7-3,4.7l-11.6,6.9L4.1,27.5c-1.6-1-2.8-2.7-3-4.7l-0.3-3.2
				c-0.1-0.8,0.3-2.1,1.6-2.7l5.3-2.3l0.4,6c0.1,0.9,0.6,1.7,1.3,2.2l6.2,3.7l6.2-3.7c0.7-0.4,1.3-1.2,1.3-2.2l0.4-6
				C27.3,16,29.4,16.5,30.9,16z"/>
		</g>
	</g>
	<g id="XMLID_6_">
		<g id="XMLID_21_">
			<g id="XMLID_22_">
				<g id="XMLID_23_">
					<path id="XMLID_24_" class="st1" d="M41,25.3c0.8,1.6,2.8,1.9,3.9,1.9c1.4,0,2.3-0.3,2.9-0.9c0.4-0.5,0.7-1.1,0.6-1.9
						c-0.1-1-0.6-1.9-1.9-2.8c-0.5-0.4-1.1-0.8-1.6-1.1c-2.3-1.5-4.6-3-4.8-6.1c-0.1-2.1,0.6-4,2-5.5c1.8-1.9,4.7-3,7.8-3
						c4.6,0,5.7,1.6,5.8,3c0,0,0.1,2.5-3,3.5c-1.2-1.6-2.1-2.5-4.2-2.6c-1.1,0-1.9,0.2-2.4,0.7c-0.3,0.4-0.5,0.9-0.5,1.5
						c0.1,1.3,0.7,1.8,4.7,4.5c0.1,0.1,3.8,2.3,3.9,5.9c0.1,2-0.6,3.8-2.1,5.3c-2,2.1-5.3,3.4-8.6,3.4c-2.7,0-7.1-1-7.3-3.9
						c-0.1-1.6,1.3-3.7,4.5-4.2C40.8,23.1,40.5,24.4,41,25.3z"/>
				</g>
			</g>
		</g>
		<path id="XMLID_18_" class="st1" d="M137.2,31.2c-2.2,0-4-0.9-5.3-2.4c-1.3-1.7-1.8-4-1.5-6.5c0.8-5.1,5-9,9.6-9
			c2.2,0,4.1,0.9,5.3,2.4c1.3,1.7,1.8,4,1.5,6.5C146.1,27.3,141.9,31.2,137.2,31.2z M139.6,16.4c-1.8,0-3.2,2.2-3.8,5.8
			c-0.2,1.4-0.5,3.9,0.6,5.2c0.4,0.5,0.9,0.7,1.5,0.7c1.9,0,3.2-2,3.9-5.8c0.4-2.4,0.2-4.3-0.6-5.2
			C140.7,16.6,140.2,16.4,139.6,16.4z"/>
		<path id="XMLID_15_" class="st1" d="M60.7,30.6c-3-1.1-4.9-4.6-4.3-8.6c0.8-5.1,5.1-8.9,10-8.9c2.8,0,4.2,1.1,5,2
			c0.8,1,1.2,2.3,1,3.5c-0.8,4.7-5.5,5.2-7.5,5.2c-2,0-3.1-0.3-3.1-0.3s0,3.7,4.2,3.7c0,0,2.5,0,5.1-1.6c0,0,0.6,0.5,0.4,1.8
			c-0.2,1-0.7,1.6-1.8,2.3C65.2,32.4,60.7,30.6,60.7,30.6z M64.4,16.6c0,0-1.8,0.9-2.5,4.6c0,0,4.7,0.9,5.3-3c0,0,0.2-1.3-0.7-1.8
			C66.5,16.4,65.5,15.8,64.4,16.6z"/>
		<path id="XMLID_12_" class="st1" d="M115.6,13.5c-2.2-0.7-4.5,0.4-6.3,2.6c-0.2-1.7-1.2-2.9-3.2-2.9c-2.6,0.2-3.7,2.1-3.7,2.1
			c0.5,0.3,1,1,1.1,2.6c0,0.7,0,1.5-0.1,2.6l-1.8,13.6c0,0-0.8,4.8,3.4,4.9c2,0,3.1-1.3,3.6-2.2c-2.1-1.3-1.4-4.9-1.4-4.9
			c0.1-0.9,0.4-2.5,0.5-3.3c0.7,1.2,1.7,2.1,3,2.5c3.3,1,7.2-2.1,8.6-6.9C120.5,19.3,118.9,14.6,115.6,13.5z M114.4,22.4
			c-0.5,3.1-2,5.1-3.7,5.1c-0.6,0-1.1-0.2-1.5-0.7c-0.7-0.9-1-2.5-0.6-4.6c0.5-3.1,2-5.1,3.7-5.1c0.6,0,1.1,0.2,1.5,0.7
			C114.5,18.7,114.7,20.4,114.4,22.4z"/>
		<path id="XMLID_11_" class="st1" d="M81.2,16.8c0.3-0.4,2.5-3.5,5.8-3.5c0,0,3.3-0.2,3.3,3.5c0,0,1.9-3.5,5.7-3.5
			c4.3,0.1,3.4,5.1,3.4,5.1c-0.1,0.8-0.7,5-0.7,5c0,0-0.2,1.8-0.1,2.8c0,0,0,2.1,1.7,2.7c-0.7,1.2-1.8,2.2-3.5,2.2
			c-1.1,0-2.1-0.4-2.7-1.2c-0.7-1-0.9-2.3-0.8-3.8c0,0,0.3-3.3,0.6-5.6c0.4-2.7-1.3-2.6-1.3-2.6c-1.3,0-2.4,1.6-2.8,4.3
			c0,0-1.1,8-1.2,8.4c-1.2,0.4-2.9,0.4-2.9,0.4c-1.6-0.1-1.9-0.9-1.9-0.9c-0.3-0.6-0.2-1.8-0.2-1.8l1.1-7.9c0,0,0.3-2.4-1.3-2.4
			c-1.2,0-2.4,1.4-2.8,4.3c0,0-1.1,8-1.2,8.4c-1.4,0.4-3.1,0.3-3.1,0.3c-1.6-0.1-1.9-0.9-1.9-0.9c-0.3-0.6-0.2-1.8-0.2-1.8l1.1-8.6
			c0.1-1.1,0-2.1,0-2.1c-0.2-2-1.1-2.3-1.1-2.3c0.7-1.1,2.3-2.1,3.8-2.1C78.1,13.2,81.3,13,81.2,16.8z"/>
		<g id="XMLID_7_">
			<path id="XMLID_10_" class="st1" d="M127.5,27c-0.3-1.3-0.1-2.9-0.1-2.9c0.4-2.5,1.1-6.2,1.1-6.2c0.3-1.5,0.1-2.8-0.6-3.6
				c-0.5-0.7-1.4-1-2.4-1c-1.5,0-3.2,1.1-3.8,2.1c0,0,1.6,0.5,1,5.2c0,0-0.5,3.5-0.7,5.4c-0.2,1.1-0.1,1.8-0.1,1.8
				c0,0.7,0.2,1.5,0.6,2.2c0,0,0.8,1.5,3.1,1.4c0,0,2.2,0,3.4-2.2C128.8,29,127.8,28.5,127.5,27z"/>
			<path id="XMLID_9_" class="st1" d="M124.5,11.3c0.1-7.5-6.3-7-6.3-7S117.1,10.7,124.5,11.3z"/>
			<path id="XMLID_8_" class="st1" d="M125.6,11.4c11.2-0.1,10.3-9.6,10.3-9.6S126.4,0.3,125.6,11.4z"/>
		</g>
	</g>
</g>
</svg>
